<mxfile host="65bd71144e">
    <diagram id="cxpIFzEJbcErcJtWfzBN" name="Page-1">
        <mxGraphModel dx="2274" dy="601" grid="1" gridSize="10" guides="1" tooltips="1" connect="1" arrows="1" fold="1" page="1" pageScale="1" pageWidth="1169" pageHeight="827" math="0" shadow="0">
            <root>
                <mxCell id="0"/>
                <mxCell id="1" parent="0"/>
                <mxCell id="fLcq5E-ED35a-WWf0CEz-242" style="edgeStyle=none;html=1;entryX=0;entryY=0.5;entryDx=0;entryDy=0;fontSize=12;endArrow=none;endFill=0;" edge="1" parent="1" source="fLcq5E-ED35a-WWf0CEz-240" target="fLcq5E-ED35a-WWf0CEz-171">
                    <mxGeometry relative="1" as="geometry"/>
                </mxCell>
                <mxCell id="fLcq5E-ED35a-WWf0CEz-245" style="edgeStyle=none;html=1;entryX=0;entryY=0.25;entryDx=0;entryDy=0;fontSize=12;endArrow=none;endFill=0;" edge="1" parent="1" source="fLcq5E-ED35a-WWf0CEz-243" target="fLcq5E-ED35a-WWf0CEz-119">
                    <mxGeometry relative="1" as="geometry"/>
                </mxCell>
                <mxCell id="74" style="edgeStyle=none;html=1;entryX=0;entryY=0.5;entryDx=0;entryDy=0;endArrow=none;endFill=0;" parent="1" source="2" target="73" edge="1">
                    <mxGeometry relative="1" as="geometry"/>
                </mxCell>
                <mxCell id="fLcq5E-ED35a-WWf0CEz-143" style="edgeStyle=none;html=1;entryX=0.5;entryY=0;entryDx=0;entryDy=0;fontSize=12;endArrow=none;endFill=0;" edge="1" parent="1" source="2" target="fLcq5E-ED35a-WWf0CEz-142">
                    <mxGeometry relative="1" as="geometry"/>
                </mxCell>
                <mxCell id="fLcq5E-ED35a-WWf0CEz-169" style="edgeStyle=none;html=1;entryX=0.5;entryY=0;entryDx=0;entryDy=0;fontSize=12;endArrow=none;endFill=0;" edge="1" parent="1" source="2" target="fLcq5E-ED35a-WWf0CEz-168">
                    <mxGeometry relative="1" as="geometry"/>
                </mxCell>
                <mxCell id="fLcq5E-ED35a-WWf0CEz-191" style="edgeStyle=none;html=1;fontSize=12;endArrow=none;endFill=0;" edge="1" parent="1" source="2" target="fLcq5E-ED35a-WWf0CEz-190">
                    <mxGeometry relative="1" as="geometry"/>
                </mxCell>
                <mxCell id="2" value="&lt;b&gt;ASSIGNMENTS&lt;/b&gt;" style="whiteSpace=wrap;html=1;align=center;" parent="1" vertex="1">
                    <mxGeometry x="200" y="240" width="160" height="40" as="geometry"/>
                </mxCell>
                <mxCell id="43" style="edgeStyle=none;html=1;entryX=0;entryY=0.5;entryDx=0;entryDy=0;endArrow=none;endFill=0;" parent="1" source="4" target="2" edge="1">
                    <mxGeometry relative="1" as="geometry"/>
                </mxCell>
                <mxCell id="4" value="&lt;b&gt;ID&lt;/b&gt;" style="ellipse;whiteSpace=wrap;html=1;align=center;fontStyle=4;" parent="1" vertex="1">
                    <mxGeometry x="60" y="270" width="80" height="40" as="geometry"/>
                </mxCell>
                <mxCell id="47" style="edgeStyle=none;html=1;endArrow=none;endFill=0;" parent="1" source="6" target="2" edge="1">
                    <mxGeometry relative="1" as="geometry"/>
                </mxCell>
                <mxCell id="6" value="&lt;b&gt;PROGRAM_ID&lt;/b&gt;" style="ellipse;whiteSpace=wrap;html=1;align=center;" parent="1" vertex="1">
                    <mxGeometry x="90" y="110" width="100" height="40" as="geometry"/>
                </mxCell>
                <mxCell id="48" style="edgeStyle=none;html=1;endArrow=none;endFill=0;" parent="1" source="11" target="2" edge="1">
                    <mxGeometry relative="1" as="geometry"/>
                </mxCell>
                <mxCell id="11" value="&lt;b&gt;DESCRIPTION&lt;/b&gt;" style="ellipse;whiteSpace=wrap;html=1;align=center;" parent="1" vertex="1">
                    <mxGeometry x="40" y="160" width="100" height="40" as="geometry"/>
                </mxCell>
                <mxCell id="49" style="edgeStyle=none;html=1;endArrow=none;endFill=0;" parent="1" source="12" target="2" edge="1">
                    <mxGeometry relative="1" as="geometry"/>
                </mxCell>
                <mxCell id="12" value="&lt;b&gt;TITLE&lt;/b&gt;" style="ellipse;whiteSpace=wrap;html=1;align=center;" parent="1" vertex="1">
                    <mxGeometry x="20" y="210" width="100" height="40" as="geometry"/>
                </mxCell>
                <mxCell id="50" style="edgeStyle=none;html=1;endArrow=none;endFill=0;" parent="1" source="13" target="2" edge="1">
                    <mxGeometry relative="1" as="geometry"/>
                </mxCell>
                <mxCell id="13" value="&lt;b&gt;SEMESTER_ID&lt;/b&gt;" style="ellipse;whiteSpace=wrap;html=1;align=center;" parent="1" vertex="1">
                    <mxGeometry x="130" y="60" width="100" height="40" as="geometry"/>
                </mxCell>
                <mxCell id="92" style="edgeStyle=none;html=1;endArrow=none;endFill=0;" parent="1" source="21" target="2" edge="1">
                    <mxGeometry relative="1" as="geometry"/>
                </mxCell>
                <mxCell id="21" value="&lt;b&gt;COURSE_ID&lt;/b&gt;" style="ellipse;whiteSpace=wrap;html=1;align=center;" parent="1" vertex="1">
                    <mxGeometry x="200" y="20" width="100" height="40" as="geometry"/>
                </mxCell>
                <mxCell id="82" style="edgeStyle=none;html=1;entryX=0;entryY=0.5;entryDx=0;entryDy=0;endArrow=none;endFill=0;exitX=1;exitY=0.5;exitDx=0;exitDy=0;" parent="1" source="32" target="81" edge="1">
                    <mxGeometry relative="1" as="geometry"/>
                </mxCell>
                <mxCell id="32" value="&lt;b&gt;ASSIGNMENT_STUDENTS&lt;/b&gt;" style="whiteSpace=wrap;html=1;align=center;" parent="1" vertex="1">
                    <mxGeometry x="670" y="240" width="160" height="40" as="geometry"/>
                </mxCell>
                <mxCell id="76" style="edgeStyle=none;html=1;entryX=0.141;entryY=0.026;entryDx=0;entryDy=0;entryPerimeter=0;endArrow=none;endFill=0;" parent="1" source="33" target="32" edge="1">
                    <mxGeometry relative="1" as="geometry"/>
                </mxCell>
                <mxCell id="33" value="&lt;b&gt;ID&lt;/b&gt;" style="ellipse;whiteSpace=wrap;html=1;align=center;fontStyle=4;" parent="1" vertex="1">
                    <mxGeometry x="575" y="190" width="80" height="40" as="geometry"/>
                </mxCell>
                <mxCell id="77" style="edgeStyle=none;html=1;endArrow=none;endFill=0;" parent="1" source="34" target="32" edge="1">
                    <mxGeometry relative="1" as="geometry"/>
                </mxCell>
                <mxCell id="34" value="&lt;b&gt;STUDENT_ID&lt;/b&gt;" style="ellipse;whiteSpace=wrap;html=1;align=center;" parent="1" vertex="1">
                    <mxGeometry x="555" y="140" width="100" height="40" as="geometry"/>
                </mxCell>
                <mxCell id="78" style="edgeStyle=none;html=1;endArrow=none;endFill=0;" parent="1" source="35" target="32" edge="1">
                    <mxGeometry relative="1" as="geometry"/>
                </mxCell>
                <mxCell id="35" value="&lt;b&gt;ASSIGNMENT_ID&lt;/b&gt;" style="ellipse;whiteSpace=wrap;html=1;align=center;" parent="1" vertex="1">
                    <mxGeometry x="575" y="90" width="115" height="40" as="geometry"/>
                </mxCell>
                <mxCell id="79" style="edgeStyle=none;html=1;endArrow=none;endFill=0;" parent="1" source="36" target="32" edge="1">
                    <mxGeometry relative="1" as="geometry"/>
                </mxCell>
                <mxCell id="36" value="&lt;b&gt;COMPLETED&lt;/b&gt;" style="ellipse;whiteSpace=wrap;html=1;align=center;" parent="1" vertex="1">
                    <mxGeometry x="635" y="40" width="100" height="40" as="geometry"/>
                </mxCell>
                <mxCell id="75" style="edgeStyle=none;html=1;entryX=0;entryY=0.5;entryDx=0;entryDy=0;endArrow=none;endFill=0;" parent="1" source="73" target="32" edge="1">
                    <mxGeometry relative="1" as="geometry"/>
                </mxCell>
                <mxCell id="73" value="&lt;b&gt;HAS&lt;/b&gt;" style="shape=rhombus;perimeter=rhombusPerimeter;whiteSpace=wrap;html=1;align=center;" parent="1" vertex="1">
                    <mxGeometry x="490" y="230" width="120" height="60" as="geometry"/>
                </mxCell>
                <mxCell id="fLcq5E-ED35a-WWf0CEz-139" style="edgeStyle=none;html=1;fontSize=12;endArrow=none;endFill=0;" edge="1" parent="1" source="81" target="fLcq5E-ED35a-WWf0CEz-119">
                    <mxGeometry relative="1" as="geometry"/>
                </mxCell>
                <mxCell id="81" value="&lt;b&gt;&lt;font style=&quot;font-size: 12px;&quot;&gt;IS ASSIGNED&lt;br&gt;&amp;nbsp;TO&lt;/font&gt;&lt;/b&gt;" style="shape=rhombus;perimeter=rhombusPerimeter;whiteSpace=wrap;html=1;align=center;" parent="1" vertex="1">
                    <mxGeometry x="930" y="230" width="140" height="80" as="geometry"/>
                </mxCell>
                <mxCell id="95" value="1..*" style="text;html=1;align=center;verticalAlign=middle;resizable=0;points=[];autosize=1;strokeColor=none;fillColor=none;" parent="1" vertex="1">
                    <mxGeometry x="625" y="230" width="40" height="30" as="geometry"/>
                </mxCell>
                <mxCell id="fLcq5E-ED35a-WWf0CEz-102" value="&lt;b&gt;TEACHER_ID&lt;/b&gt;" style="ellipse;whiteSpace=wrap;html=1;align=center;" vertex="1" parent="1">
                    <mxGeometry x="285" y="60" width="100" height="40" as="geometry"/>
                </mxCell>
                <mxCell id="fLcq5E-ED35a-WWf0CEz-103" style="edgeStyle=none;html=1;endArrow=none;endFill=0;" edge="1" source="fLcq5E-ED35a-WWf0CEz-102" parent="1" target="2">
                    <mxGeometry relative="1" as="geometry">
                        <mxPoint x="382.27272727272725" y="240" as="targetPoint"/>
                    </mxGeometry>
                </mxCell>
                <mxCell id="fLcq5E-ED35a-WWf0CEz-106" style="edgeStyle=none;html=1;endArrow=none;endFill=0;" edge="1" parent="1" source="fLcq5E-ED35a-WWf0CEz-105" target="2">
                    <mxGeometry relative="1" as="geometry"/>
                </mxCell>
                <mxCell id="fLcq5E-ED35a-WWf0CEz-105" value="&lt;b&gt;DUE_DATE&lt;/b&gt;" style="ellipse;whiteSpace=wrap;html=1;align=center;" vertex="1" parent="1">
                    <mxGeometry x="350" y="100" width="100" height="40" as="geometry"/>
                </mxCell>
                <mxCell id="fLcq5E-ED35a-WWf0CEz-109" style="edgeStyle=none;html=1;endArrow=none;endFill=0;" edge="1" parent="1" source="fLcq5E-ED35a-WWf0CEz-107" target="2">
                    <mxGeometry relative="1" as="geometry"/>
                </mxCell>
                <mxCell id="fLcq5E-ED35a-WWf0CEz-107" value="&lt;b&gt;CREATED_AT&lt;/b&gt;" style="ellipse;whiteSpace=wrap;html=1;align=center;" vertex="1" parent="1">
                    <mxGeometry x="395" y="150" width="100" height="40" as="geometry"/>
                </mxCell>
                <mxCell id="fLcq5E-ED35a-WWf0CEz-110" style="edgeStyle=none;html=1;endArrow=none;endFill=0;" edge="1" parent="1" source="fLcq5E-ED35a-WWf0CEz-108" target="2">
                    <mxGeometry relative="1" as="geometry"/>
                </mxCell>
                <mxCell id="fLcq5E-ED35a-WWf0CEz-108" value="&lt;b&gt;UPDATED_AT&lt;/b&gt;" style="ellipse;whiteSpace=wrap;html=1;align=center;" vertex="1" parent="1">
                    <mxGeometry x="420" y="200" width="100" height="40" as="geometry"/>
                </mxCell>
                <mxCell id="fLcq5E-ED35a-WWf0CEz-113" style="edgeStyle=none;html=1;entryX=0.556;entryY=-0.084;entryDx=0;entryDy=0;entryPerimeter=0;endArrow=none;endFill=0;exitX=0.216;exitY=1.036;exitDx=0;exitDy=0;exitPerimeter=0;" edge="1" parent="1" source="fLcq5E-ED35a-WWf0CEz-111" target="32">
                    <mxGeometry relative="1" as="geometry"/>
                </mxCell>
                <mxCell id="fLcq5E-ED35a-WWf0CEz-111" value="&lt;b&gt;CREATED_AT&lt;/b&gt;" style="ellipse;whiteSpace=wrap;html=1;align=center;" vertex="1" parent="1">
                    <mxGeometry x="735" y="20" width="100" height="40" as="geometry"/>
                </mxCell>
                <mxCell id="fLcq5E-ED35a-WWf0CEz-114" style="edgeStyle=none;html=1;entryX=0.75;entryY=0;entryDx=0;entryDy=0;endArrow=none;endFill=0;exitX=0;exitY=1;exitDx=0;exitDy=0;" edge="1" parent="1" source="fLcq5E-ED35a-WWf0CEz-112" target="32">
                    <mxGeometry relative="1" as="geometry"/>
                </mxCell>
                <mxCell id="fLcq5E-ED35a-WWf0CEz-112" value="&lt;b&gt;UPDATED_AT&lt;/b&gt;" style="ellipse;whiteSpace=wrap;html=1;align=center;" vertex="1" parent="1">
                    <mxGeometry x="820" y="60" width="100" height="40" as="geometry"/>
                </mxCell>
                <mxCell id="fLcq5E-ED35a-WWf0CEz-119" value="&lt;b&gt;STUDENTS&lt;/b&gt;" style="whiteSpace=wrap;html=1;align=center;" vertex="1" parent="1">
                    <mxGeometry x="920" y="360" width="160" height="40" as="geometry"/>
                </mxCell>
                <mxCell id="fLcq5E-ED35a-WWf0CEz-120" style="edgeStyle=none;html=1;entryX=0;entryY=0.5;entryDx=0;entryDy=0;endArrow=none;endFill=0;" edge="1" source="fLcq5E-ED35a-WWf0CEz-121" target="fLcq5E-ED35a-WWf0CEz-119" parent="1">
                    <mxGeometry relative="1" as="geometry"/>
                </mxCell>
                <mxCell id="fLcq5E-ED35a-WWf0CEz-121" value="&lt;b&gt;ID&lt;/b&gt;" style="ellipse;whiteSpace=wrap;html=1;align=center;fontStyle=4;" vertex="1" parent="1">
                    <mxGeometry x="780" y="380" width="80" height="40" as="geometry"/>
                </mxCell>
                <mxCell id="fLcq5E-ED35a-WWf0CEz-122" style="edgeStyle=none;html=1;endArrow=none;endFill=0;" edge="1" source="fLcq5E-ED35a-WWf0CEz-123" target="fLcq5E-ED35a-WWf0CEz-119" parent="1">
                    <mxGeometry relative="1" as="geometry"/>
                </mxCell>
                <mxCell id="fLcq5E-ED35a-WWf0CEz-123" value="&lt;b&gt;PROGRAM_ID&lt;/b&gt;" style="ellipse;whiteSpace=wrap;html=1;align=center;" vertex="1" parent="1">
                    <mxGeometry x="740" y="480" width="100" height="40" as="geometry"/>
                </mxCell>
                <mxCell id="fLcq5E-ED35a-WWf0CEz-124" style="edgeStyle=none;html=1;endArrow=none;endFill=0;" edge="1" source="fLcq5E-ED35a-WWf0CEz-125" target="fLcq5E-ED35a-WWf0CEz-119" parent="1">
                    <mxGeometry relative="1" as="geometry"/>
                </mxCell>
                <mxCell id="fLcq5E-ED35a-WWf0CEz-125" value="&lt;b&gt;USER_ID&lt;/b&gt;" style="ellipse;whiteSpace=wrap;html=1;align=center;" vertex="1" parent="1">
                    <mxGeometry x="740" y="430" width="100" height="40" as="geometry"/>
                </mxCell>
                <mxCell id="fLcq5E-ED35a-WWf0CEz-127" style="edgeStyle=none;html=1;endArrow=none;endFill=0;" edge="1" source="fLcq5E-ED35a-WWf0CEz-128" target="fLcq5E-ED35a-WWf0CEz-119" parent="1">
                    <mxGeometry relative="1" as="geometry"/>
                </mxCell>
                <mxCell id="fLcq5E-ED35a-WWf0CEz-128" value="&lt;b&gt;SEMESTER_ID&lt;/b&gt;" style="ellipse;whiteSpace=wrap;html=1;align=center;" vertex="1" parent="1">
                    <mxGeometry x="760" y="530" width="100" height="40" as="geometry"/>
                </mxCell>
                <mxCell id="fLcq5E-ED35a-WWf0CEz-129" style="edgeStyle=none;html=1;endArrow=none;endFill=0;" edge="1" source="fLcq5E-ED35a-WWf0CEz-130" target="fLcq5E-ED35a-WWf0CEz-119" parent="1">
                    <mxGeometry relative="1" as="geometry"/>
                </mxCell>
                <mxCell id="fLcq5E-ED35a-WWf0CEz-130" value="&lt;b&gt;COURSE_ID&lt;/b&gt;" style="ellipse;whiteSpace=wrap;html=1;align=center;" vertex="1" parent="1">
                    <mxGeometry x="860" y="507.5" width="100" height="40" as="geometry"/>
                </mxCell>
                <mxCell id="fLcq5E-ED35a-WWf0CEz-132" value="&lt;b&gt;DATE_OF_BIRTH&lt;/b&gt;" style="ellipse;whiteSpace=wrap;html=1;align=center;" vertex="1" parent="1">
                    <mxGeometry x="900" y="550" width="120" height="40" as="geometry"/>
                </mxCell>
                <mxCell id="fLcq5E-ED35a-WWf0CEz-133" style="edgeStyle=none;html=1;endArrow=none;endFill=0;" edge="1" source="fLcq5E-ED35a-WWf0CEz-132" target="fLcq5E-ED35a-WWf0CEz-119" parent="1">
                    <mxGeometry relative="1" as="geometry">
                        <mxPoint x="854.7727272727273" y="520" as="targetPoint"/>
                    </mxGeometry>
                </mxCell>
                <mxCell id="fLcq5E-ED35a-WWf0CEz-134" style="edgeStyle=none;html=1;endArrow=none;endFill=0;" edge="1" source="fLcq5E-ED35a-WWf0CEz-135" target="fLcq5E-ED35a-WWf0CEz-119" parent="1">
                    <mxGeometry relative="1" as="geometry"/>
                </mxCell>
                <mxCell id="fLcq5E-ED35a-WWf0CEz-135" value="&lt;b&gt;PHONE_NUMBER&lt;/b&gt;" style="ellipse;whiteSpace=wrap;html=1;align=center;" vertex="1" parent="1">
                    <mxGeometry x="980" y="505" width="120" height="45" as="geometry"/>
                </mxCell>
                <mxCell id="fLcq5E-ED35a-WWf0CEz-136" style="edgeStyle=none;html=1;endArrow=none;endFill=0;" edge="1" source="fLcq5E-ED35a-WWf0CEz-137" target="fLcq5E-ED35a-WWf0CEz-119" parent="1">
                    <mxGeometry relative="1" as="geometry"/>
                </mxCell>
                <mxCell id="fLcq5E-ED35a-WWf0CEz-137" value="&lt;b&gt;CREATED_AT&lt;/b&gt;" style="ellipse;whiteSpace=wrap;html=1;align=center;" vertex="1" parent="1">
                    <mxGeometry x="1030" y="460" width="100" height="40" as="geometry"/>
                </mxCell>
                <mxCell id="fLcq5E-ED35a-WWf0CEz-141" style="edgeStyle=none;html=1;entryX=0.75;entryY=1;entryDx=0;entryDy=0;fontSize=12;endArrow=none;endFill=0;" edge="1" parent="1" source="fLcq5E-ED35a-WWf0CEz-140" target="fLcq5E-ED35a-WWf0CEz-119">
                    <mxGeometry relative="1" as="geometry"/>
                </mxCell>
                <mxCell id="fLcq5E-ED35a-WWf0CEz-140" value="&lt;b&gt;UPDATED_AT&lt;/b&gt;" style="ellipse;whiteSpace=wrap;html=1;align=center;" vertex="1" parent="1">
                    <mxGeometry x="1050" y="410" width="100" height="40" as="geometry"/>
                </mxCell>
                <mxCell id="fLcq5E-ED35a-WWf0CEz-145" style="edgeStyle=none;html=1;entryX=1;entryY=0.5;entryDx=0;entryDy=0;fontSize=12;endArrow=none;endFill=0;exitX=0;exitY=0.5;exitDx=0;exitDy=0;" edge="1" parent="1" source="fLcq5E-ED35a-WWf0CEz-142" target="fLcq5E-ED35a-WWf0CEz-144">
                    <mxGeometry relative="1" as="geometry"/>
                </mxCell>
                <mxCell id="fLcq5E-ED35a-WWf0CEz-142" value="&lt;b&gt;CONTAINS&lt;/b&gt;" style="shape=rhombus;perimeter=rhombusPerimeter;whiteSpace=wrap;html=1;align=center;" vertex="1" parent="1">
                    <mxGeometry x="220" y="330" width="120" height="60" as="geometry"/>
                </mxCell>
                <mxCell id="fLcq5E-ED35a-WWf0CEz-144" value="&lt;b&gt;PROGRAMS&lt;/b&gt;" style="whiteSpace=wrap;html=1;align=center;" vertex="1" parent="1">
                    <mxGeometry x="20" y="340" width="160" height="40" as="geometry"/>
                </mxCell>
                <mxCell id="fLcq5E-ED35a-WWf0CEz-151" style="edgeStyle=none;html=1;entryX=0;entryY=0.5;entryDx=0;entryDy=0;fontSize=12;endArrow=none;endFill=0;" edge="1" parent="1" source="fLcq5E-ED35a-WWf0CEz-146" target="fLcq5E-ED35a-WWf0CEz-144">
                    <mxGeometry relative="1" as="geometry"/>
                </mxCell>
                <mxCell id="fLcq5E-ED35a-WWf0CEz-146" value="&lt;b&gt;ID&lt;/b&gt;" style="ellipse;whiteSpace=wrap;html=1;align=center;fontStyle=4;" vertex="1" parent="1">
                    <mxGeometry x="-85" y="280" width="80" height="40" as="geometry"/>
                </mxCell>
                <mxCell id="fLcq5E-ED35a-WWf0CEz-152" style="edgeStyle=none;html=1;entryX=0;entryY=0.5;entryDx=0;entryDy=0;fontSize=12;endArrow=none;endFill=0;" edge="1" parent="1" source="fLcq5E-ED35a-WWf0CEz-147" target="fLcq5E-ED35a-WWf0CEz-144">
                    <mxGeometry relative="1" as="geometry"/>
                </mxCell>
                <mxCell id="fLcq5E-ED35a-WWf0CEz-147" value="&lt;b&gt;NAME&lt;/b&gt;" style="ellipse;whiteSpace=wrap;html=1;align=center;" vertex="1" parent="1">
                    <mxGeometry x="-190" y="300" width="100" height="40" as="geometry"/>
                </mxCell>
                <mxCell id="fLcq5E-ED35a-WWf0CEz-155" style="edgeStyle=none;html=1;fontSize=12;endArrow=none;endFill=0;" edge="1" parent="1" source="fLcq5E-ED35a-WWf0CEz-148">
                    <mxGeometry relative="1" as="geometry">
                        <mxPoint x="20" y="370" as="targetPoint"/>
                    </mxGeometry>
                </mxCell>
                <mxCell id="fLcq5E-ED35a-WWf0CEz-148" value="&lt;b&gt;CODE&lt;/b&gt;" style="ellipse;whiteSpace=wrap;html=1;align=center;" vertex="1" parent="1">
                    <mxGeometry x="-260" y="340" width="100" height="40" as="geometry"/>
                </mxCell>
                <mxCell id="fLcq5E-ED35a-WWf0CEz-154" style="edgeStyle=none;html=1;entryX=0;entryY=0.75;entryDx=0;entryDy=0;fontSize=12;endArrow=none;endFill=0;" edge="1" parent="1" source="fLcq5E-ED35a-WWf0CEz-149" target="fLcq5E-ED35a-WWf0CEz-144">
                    <mxGeometry relative="1" as="geometry"/>
                </mxCell>
                <mxCell id="fLcq5E-ED35a-WWf0CEz-149" value="&lt;b&gt;CREATED_AT&lt;/b&gt;" style="ellipse;whiteSpace=wrap;html=1;align=center;" vertex="1" parent="1">
                    <mxGeometry x="-240" y="390" width="100" height="40" as="geometry"/>
                </mxCell>
                <mxCell id="fLcq5E-ED35a-WWf0CEz-156" style="edgeStyle=none;html=1;entryX=0;entryY=1;entryDx=0;entryDy=0;fontSize=12;endArrow=none;endFill=0;" edge="1" parent="1" source="fLcq5E-ED35a-WWf0CEz-150" target="fLcq5E-ED35a-WWf0CEz-144">
                    <mxGeometry relative="1" as="geometry"/>
                </mxCell>
                <mxCell id="fLcq5E-ED35a-WWf0CEz-150" value="&lt;b&gt;UPDATED_AT&lt;/b&gt;" style="ellipse;whiteSpace=wrap;html=1;align=center;" vertex="1" parent="1">
                    <mxGeometry x="-140" y="430" width="100" height="40" as="geometry"/>
                </mxCell>
                <mxCell id="fLcq5E-ED35a-WWf0CEz-157" value="&lt;b&gt;SEMESTERS&lt;/b&gt;" style="whiteSpace=wrap;html=1;align=center;" vertex="1" parent="1">
                    <mxGeometry x="340" y="415" width="160" height="40" as="geometry"/>
                </mxCell>
                <mxCell id="fLcq5E-ED35a-WWf0CEz-158" style="edgeStyle=none;html=1;entryX=0;entryY=0.5;entryDx=0;entryDy=0;fontSize=12;endArrow=none;endFill=0;" edge="1" source="fLcq5E-ED35a-WWf0CEz-167" target="fLcq5E-ED35a-WWf0CEz-157" parent="1">
                    <mxGeometry relative="1" as="geometry"/>
                </mxCell>
                <mxCell id="fLcq5E-ED35a-WWf0CEz-159" style="edgeStyle=none;html=1;entryX=0;entryY=0.5;entryDx=0;entryDy=0;fontSize=12;endArrow=none;endFill=0;" edge="1" source="fLcq5E-ED35a-WWf0CEz-160" target="fLcq5E-ED35a-WWf0CEz-157" parent="1">
                    <mxGeometry relative="1" as="geometry"/>
                </mxCell>
                <mxCell id="fLcq5E-ED35a-WWf0CEz-160" value="&lt;b&gt;NAME&lt;/b&gt;" style="ellipse;whiteSpace=wrap;html=1;align=center;" vertex="1" parent="1">
                    <mxGeometry x="80" y="414" width="100" height="40" as="geometry"/>
                </mxCell>
                <mxCell id="fLcq5E-ED35a-WWf0CEz-161" style="edgeStyle=none;html=1;fontSize=12;endArrow=none;endFill=0;entryX=0;entryY=0.75;entryDx=0;entryDy=0;" edge="1" source="fLcq5E-ED35a-WWf0CEz-162" parent="1" target="fLcq5E-ED35a-WWf0CEz-157">
                    <mxGeometry relative="1" as="geometry">
                        <mxPoint x="290" y="545" as="targetPoint"/>
                    </mxGeometry>
                </mxCell>
                <mxCell id="fLcq5E-ED35a-WWf0CEz-162" value="&lt;b&gt;CODE&lt;/b&gt;" style="ellipse;whiteSpace=wrap;html=1;align=center;" vertex="1" parent="1">
                    <mxGeometry x="110" y="455" width="100" height="40" as="geometry"/>
                </mxCell>
                <mxCell id="fLcq5E-ED35a-WWf0CEz-163" style="edgeStyle=none;html=1;entryX=0;entryY=0.75;entryDx=0;entryDy=0;fontSize=12;endArrow=none;endFill=0;" edge="1" source="fLcq5E-ED35a-WWf0CEz-164" target="fLcq5E-ED35a-WWf0CEz-157" parent="1">
                    <mxGeometry relative="1" as="geometry"/>
                </mxCell>
                <mxCell id="fLcq5E-ED35a-WWf0CEz-164" value="&lt;b&gt;CREATED_AT&lt;/b&gt;" style="ellipse;whiteSpace=wrap;html=1;align=center;" vertex="1" parent="1">
                    <mxGeometry x="140" y="505" width="100" height="40" as="geometry"/>
                </mxCell>
                <mxCell id="fLcq5E-ED35a-WWf0CEz-165" style="edgeStyle=none;html=1;entryX=0;entryY=1;entryDx=0;entryDy=0;fontSize=12;endArrow=none;endFill=0;" edge="1" source="fLcq5E-ED35a-WWf0CEz-166" target="fLcq5E-ED35a-WWf0CEz-157" parent="1">
                    <mxGeometry relative="1" as="geometry"/>
                </mxCell>
                <mxCell id="fLcq5E-ED35a-WWf0CEz-166" value="&lt;b&gt;UPDATED_AT&lt;/b&gt;" style="ellipse;whiteSpace=wrap;html=1;align=center;" vertex="1" parent="1">
                    <mxGeometry x="250" y="490" width="100" height="40" as="geometry"/>
                </mxCell>
                <mxCell id="fLcq5E-ED35a-WWf0CEz-167" value="&lt;b&gt;ID&lt;/b&gt;" style="ellipse;whiteSpace=wrap;html=1;align=center;fontStyle=4;" vertex="1" parent="1">
                    <mxGeometry x="190" y="390" width="80" height="40" as="geometry"/>
                </mxCell>
                <mxCell id="fLcq5E-ED35a-WWf0CEz-170" style="edgeStyle=none;html=1;entryX=0.5;entryY=0;entryDx=0;entryDy=0;fontSize=12;endArrow=none;endFill=0;" edge="1" parent="1" source="fLcq5E-ED35a-WWf0CEz-168" target="fLcq5E-ED35a-WWf0CEz-157">
                    <mxGeometry relative="1" as="geometry"/>
                </mxCell>
                <mxCell id="fLcq5E-ED35a-WWf0CEz-168" value="&lt;b&gt;CONTAINS&lt;/b&gt;" style="shape=rhombus;perimeter=rhombusPerimeter;whiteSpace=wrap;html=1;align=center;" vertex="1" parent="1">
                    <mxGeometry x="360" y="330" width="120" height="60" as="geometry"/>
                </mxCell>
                <mxCell id="fLcq5E-ED35a-WWf0CEz-171" value="&lt;b&gt;TEACHER&lt;/b&gt;" style="whiteSpace=wrap;html=1;align=center;" vertex="1" parent="1">
                    <mxGeometry x="617.5" y="590" width="160" height="40" as="geometry"/>
                </mxCell>
                <mxCell id="fLcq5E-ED35a-WWf0CEz-172" style="edgeStyle=none;html=1;entryX=0.456;entryY=1.036;entryDx=0;entryDy=0;endArrow=none;endFill=0;entryPerimeter=0;" edge="1" source="fLcq5E-ED35a-WWf0CEz-173" target="fLcq5E-ED35a-WWf0CEz-171" parent="1">
                    <mxGeometry relative="1" as="geometry"/>
                </mxCell>
                <mxCell id="fLcq5E-ED35a-WWf0CEz-173" value="&lt;b&gt;ID&lt;/b&gt;" style="ellipse;whiteSpace=wrap;html=1;align=center;fontStyle=4;" vertex="1" parent="1">
                    <mxGeometry x="625" y="730" width="80" height="40" as="geometry"/>
                </mxCell>
                <mxCell id="fLcq5E-ED35a-WWf0CEz-174" style="edgeStyle=none;html=1;endArrow=none;endFill=0;" edge="1" source="fLcq5E-ED35a-WWf0CEz-175" target="fLcq5E-ED35a-WWf0CEz-171" parent="1">
                    <mxGeometry relative="1" as="geometry"/>
                </mxCell>
                <mxCell id="fLcq5E-ED35a-WWf0CEz-175" value="&lt;b&gt;PROGRAM_ID&lt;/b&gt;" style="ellipse;whiteSpace=wrap;html=1;align=center;" vertex="1" parent="1">
                    <mxGeometry x="735" y="730" width="100" height="40" as="geometry"/>
                </mxCell>
                <mxCell id="fLcq5E-ED35a-WWf0CEz-176" style="edgeStyle=none;html=1;endArrow=none;endFill=0;" edge="1" source="fLcq5E-ED35a-WWf0CEz-177" target="fLcq5E-ED35a-WWf0CEz-171" parent="1">
                    <mxGeometry relative="1" as="geometry"/>
                </mxCell>
                <mxCell id="fLcq5E-ED35a-WWf0CEz-177" value="&lt;b&gt;USER_ID&lt;/b&gt;" style="ellipse;whiteSpace=wrap;html=1;align=center;" vertex="1" parent="1">
                    <mxGeometry x="680" y="780" width="100" height="40" as="geometry"/>
                </mxCell>
                <mxCell id="fLcq5E-ED35a-WWf0CEz-178" style="edgeStyle=none;html=1;endArrow=none;endFill=0;" edge="1" source="fLcq5E-ED35a-WWf0CEz-179" target="fLcq5E-ED35a-WWf0CEz-171" parent="1">
                    <mxGeometry relative="1" as="geometry"/>
                </mxCell>
                <mxCell id="fLcq5E-ED35a-WWf0CEz-179" value="&lt;b&gt;SEMESTER_ID&lt;/b&gt;" style="ellipse;whiteSpace=wrap;html=1;align=center;" vertex="1" parent="1">
                    <mxGeometry x="830" y="760" width="100" height="40" as="geometry"/>
                </mxCell>
                <mxCell id="fLcq5E-ED35a-WWf0CEz-180" style="edgeStyle=none;html=1;endArrow=none;endFill=0;" edge="1" source="fLcq5E-ED35a-WWf0CEz-181" target="fLcq5E-ED35a-WWf0CEz-171" parent="1">
                    <mxGeometry relative="1" as="geometry"/>
                </mxCell>
                <mxCell id="fLcq5E-ED35a-WWf0CEz-181" value="&lt;b&gt;COURSE_ID&lt;/b&gt;" style="ellipse;whiteSpace=wrap;html=1;align=center;" vertex="1" parent="1">
                    <mxGeometry x="860" y="710" width="100" height="40" as="geometry"/>
                </mxCell>
                <mxCell id="fLcq5E-ED35a-WWf0CEz-186" style="edgeStyle=none;html=1;endArrow=none;endFill=0;" edge="1" source="fLcq5E-ED35a-WWf0CEz-187" target="fLcq5E-ED35a-WWf0CEz-171" parent="1">
                    <mxGeometry relative="1" as="geometry"/>
                </mxCell>
                <mxCell id="fLcq5E-ED35a-WWf0CEz-187" value="&lt;b&gt;CREATED_AT&lt;/b&gt;" style="ellipse;whiteSpace=wrap;html=1;align=center;" vertex="1" parent="1">
                    <mxGeometry x="840" y="660" width="100" height="40" as="geometry"/>
                </mxCell>
                <mxCell id="fLcq5E-ED35a-WWf0CEz-188" style="edgeStyle=none;html=1;entryX=0.75;entryY=1;entryDx=0;entryDy=0;fontSize=12;endArrow=none;endFill=0;" edge="1" source="fLcq5E-ED35a-WWf0CEz-189" target="fLcq5E-ED35a-WWf0CEz-171" parent="1">
                    <mxGeometry relative="1" as="geometry"/>
                </mxCell>
                <mxCell id="fLcq5E-ED35a-WWf0CEz-189" value="&lt;b&gt;UPDATED_AT&lt;/b&gt;" style="ellipse;whiteSpace=wrap;html=1;align=center;" vertex="1" parent="1">
                    <mxGeometry x="800" y="610" width="100" height="40" as="geometry"/>
                </mxCell>
                <mxCell id="fLcq5E-ED35a-WWf0CEz-192" style="edgeStyle=none;html=1;fontSize=12;endArrow=none;endFill=0;" edge="1" parent="1" source="fLcq5E-ED35a-WWf0CEz-190" target="fLcq5E-ED35a-WWf0CEz-171">
                    <mxGeometry relative="1" as="geometry"/>
                </mxCell>
                <mxCell id="fLcq5E-ED35a-WWf0CEz-190" value="&lt;b&gt;ASSIGNED &lt;br&gt;BY&lt;/b&gt;" style="shape=rhombus;perimeter=rhombusPerimeter;whiteSpace=wrap;html=1;align=center;" vertex="1" parent="1">
                    <mxGeometry x="617.5" y="310" width="135" height="70" as="geometry"/>
                </mxCell>
                <mxCell id="fLcq5E-ED35a-WWf0CEz-194" style="edgeStyle=none;html=1;fontSize=12;endArrow=none;endFill=0;" edge="1" parent="1" source="fLcq5E-ED35a-WWf0CEz-193" target="2">
                    <mxGeometry relative="1" as="geometry"/>
                </mxCell>
                <mxCell id="fLcq5E-ED35a-WWf0CEz-196" style="edgeStyle=none;html=1;fontSize=12;endArrow=none;endFill=0;" edge="1" parent="1" source="fLcq5E-ED35a-WWf0CEz-193" target="fLcq5E-ED35a-WWf0CEz-195">
                    <mxGeometry relative="1" as="geometry"/>
                </mxCell>
                <mxCell id="fLcq5E-ED35a-WWf0CEz-193" value="&lt;b&gt;CONTAINS&lt;/b&gt;" style="shape=rhombus;perimeter=rhombusPerimeter;whiteSpace=wrap;html=1;align=center;" vertex="1" parent="1">
                    <mxGeometry x="500" y="330" width="120" height="60" as="geometry"/>
                </mxCell>
                <mxCell id="fLcq5E-ED35a-WWf0CEz-195" value="&lt;b&gt;COURSES&lt;/b&gt;" style="whiteSpace=wrap;html=1;align=center;" vertex="1" parent="1">
                    <mxGeometry x="500" y="480" width="160" height="40" as="geometry"/>
                </mxCell>
                <mxCell id="fLcq5E-ED35a-WWf0CEz-197" value="&lt;b&gt;ID&lt;/b&gt;" style="ellipse;whiteSpace=wrap;html=1;align=center;fontStyle=4;" vertex="1" parent="1">
                    <mxGeometry x="395" y="495" width="80" height="40" as="geometry"/>
                </mxCell>
                <mxCell id="fLcq5E-ED35a-WWf0CEz-198" style="edgeStyle=none;html=1;entryX=0;entryY=0.5;entryDx=0;entryDy=0;fontSize=12;endArrow=none;endFill=0;" edge="1" source="fLcq5E-ED35a-WWf0CEz-197" parent="1" target="fLcq5E-ED35a-WWf0CEz-195">
                    <mxGeometry relative="1" as="geometry">
                        <mxPoint x="510" y="575" as="targetPoint"/>
                    </mxGeometry>
                </mxCell>
                <mxCell id="fLcq5E-ED35a-WWf0CEz-199" value="&lt;b&gt;NAME&lt;/b&gt;" style="ellipse;whiteSpace=wrap;html=1;align=center;" vertex="1" parent="1">
                    <mxGeometry x="370" y="545" width="100" height="40" as="geometry"/>
                </mxCell>
                <mxCell id="fLcq5E-ED35a-WWf0CEz-200" style="edgeStyle=none;html=1;entryX=0.155;entryY=1.026;entryDx=0;entryDy=0;fontSize=12;endArrow=none;endFill=0;entryPerimeter=0;" edge="1" source="fLcq5E-ED35a-WWf0CEz-199" parent="1" target="fLcq5E-ED35a-WWf0CEz-195">
                    <mxGeometry relative="1" as="geometry">
                        <mxPoint x="510" y="575" as="targetPoint"/>
                    </mxGeometry>
                </mxCell>
                <mxCell id="fLcq5E-ED35a-WWf0CEz-201" style="edgeStyle=none;html=1;fontSize=12;endArrow=none;endFill=0;entryX=0.25;entryY=1;entryDx=0;entryDy=0;" edge="1" source="fLcq5E-ED35a-WWf0CEz-206" parent="1" target="fLcq5E-ED35a-WWf0CEz-195">
                    <mxGeometry relative="1" as="geometry">
                        <mxPoint x="510" y="585" as="targetPoint"/>
                    </mxGeometry>
                </mxCell>
                <mxCell id="fLcq5E-ED35a-WWf0CEz-203" style="edgeStyle=none;html=1;entryX=0.56;entryY=1.086;entryDx=0;entryDy=0;fontSize=12;endArrow=none;endFill=0;entryPerimeter=0;" edge="1" source="fLcq5E-ED35a-WWf0CEz-204" parent="1" target="fLcq5E-ED35a-WWf0CEz-195">
                    <mxGeometry relative="1" as="geometry">
                        <mxPoint x="510" y="595" as="targetPoint"/>
                    </mxGeometry>
                </mxCell>
                <mxCell id="fLcq5E-ED35a-WWf0CEz-204" value="&lt;b&gt;UPDATED_AT&lt;/b&gt;" style="ellipse;whiteSpace=wrap;html=1;align=center;" vertex="1" parent="1">
                    <mxGeometry x="510" y="620" width="100" height="40" as="geometry"/>
                </mxCell>
                <mxCell id="fLcq5E-ED35a-WWf0CEz-205" value="&lt;b&gt;CREATED_AT&lt;/b&gt;" style="ellipse;whiteSpace=wrap;html=1;align=center;" vertex="1" parent="1">
                    <mxGeometry x="410" y="650" width="100" height="40" as="geometry"/>
                </mxCell>
                <mxCell id="fLcq5E-ED35a-WWf0CEz-207" value="" style="edgeStyle=none;html=1;fontSize=12;endArrow=none;endFill=0;" edge="1" parent="1" source="fLcq5E-ED35a-WWf0CEz-205">
                    <mxGeometry relative="1" as="geometry">
                        <mxPoint x="390.0000000000032" y="648.9999999999984" as="sourcePoint"/>
                        <mxPoint x="580" y="520" as="targetPoint"/>
                    </mxGeometry>
                </mxCell>
                <mxCell id="fLcq5E-ED35a-WWf0CEz-206" value="&lt;b&gt;CODE&lt;/b&gt;" style="ellipse;whiteSpace=wrap;html=1;align=center;" vertex="1" parent="1">
                    <mxGeometry x="390" y="590" width="100" height="40" as="geometry"/>
                </mxCell>
                <mxCell id="fLcq5E-ED35a-WWf0CEz-209" value="1..*" style="text;html=1;align=center;verticalAlign=middle;resizable=0;points=[];autosize=1;strokeColor=none;fillColor=none;" vertex="1" parent="1">
                    <mxGeometry x="440" y="260" width="40" height="30" as="geometry"/>
                </mxCell>
                <mxCell id="fLcq5E-ED35a-WWf0CEz-210" value="1..*" style="text;html=1;align=center;verticalAlign=middle;resizable=0;points=[];autosize=1;strokeColor=none;fillColor=none;" vertex="1" parent="1">
                    <mxGeometry x="890" y="230" width="40" height="30" as="geometry"/>
                </mxCell>
                <mxCell id="fLcq5E-ED35a-WWf0CEz-211" value="1" style="text;html=1;align=center;verticalAlign=middle;resizable=0;points=[];autosize=1;strokeColor=none;fillColor=none;" vertex="1" parent="1">
                    <mxGeometry x="1005" y="310" width="30" height="30" as="geometry"/>
                </mxCell>
                <mxCell id="fLcq5E-ED35a-WWf0CEz-212" value="1" style="text;html=1;align=center;verticalAlign=middle;resizable=0;points=[];autosize=1;strokeColor=none;fillColor=none;" vertex="1" parent="1">
                    <mxGeometry x="690" y="380" width="30" height="30" as="geometry"/>
                </mxCell>
                <mxCell id="fLcq5E-ED35a-WWf0CEz-213" value="1..*" style="text;html=1;align=center;verticalAlign=middle;resizable=0;points=[];autosize=1;strokeColor=none;fillColor=none;" vertex="1" parent="1">
                    <mxGeometry x="600" y="300" width="40" height="30" as="geometry"/>
                </mxCell>
                <mxCell id="fLcq5E-ED35a-WWf0CEz-214" value="1" style="text;html=1;align=center;verticalAlign=middle;resizable=0;points=[];autosize=1;strokeColor=none;fillColor=none;" vertex="1" parent="1">
                    <mxGeometry x="500" y="320" width="30" height="30" as="geometry"/>
                </mxCell>
                <mxCell id="fLcq5E-ED35a-WWf0CEz-215" value="1" style="text;html=1;align=center;verticalAlign=middle;resizable=0;points=[];autosize=1;strokeColor=none;fillColor=none;" vertex="1" parent="1">
                    <mxGeometry x="570" y="395" width="30" height="30" as="geometry"/>
                </mxCell>
                <mxCell id="fLcq5E-ED35a-WWf0CEz-216" value="1" style="text;html=1;align=center;verticalAlign=middle;resizable=0;points=[];autosize=1;strokeColor=none;fillColor=none;" vertex="1" parent="1">
                    <mxGeometry x="420" y="390" width="30" height="30" as="geometry"/>
                </mxCell>
                <mxCell id="fLcq5E-ED35a-WWf0CEz-217" value="1" style="text;html=1;align=center;verticalAlign=middle;resizable=0;points=[];autosize=1;strokeColor=none;fillColor=none;" vertex="1" parent="1">
                    <mxGeometry x="370" y="310" width="30" height="30" as="geometry"/>
                </mxCell>
                <mxCell id="fLcq5E-ED35a-WWf0CEz-218" value="1" style="text;html=1;align=center;verticalAlign=middle;resizable=0;points=[];autosize=1;strokeColor=none;fillColor=none;" vertex="1" parent="1">
                    <mxGeometry x="190" y="330" width="30" height="30" as="geometry"/>
                </mxCell>
                <mxCell id="fLcq5E-ED35a-WWf0CEz-219" value="1" style="text;html=1;align=center;verticalAlign=middle;resizable=0;points=[];autosize=1;strokeColor=none;fillColor=none;" vertex="1" parent="1">
                    <mxGeometry x="255" y="290" width="30" height="30" as="geometry"/>
                </mxCell>
                <mxCell id="fLcq5E-ED35a-WWf0CEz-241" style="edgeStyle=none;html=1;entryX=0;entryY=0.5;entryDx=0;entryDy=0;fontSize=12;endArrow=none;endFill=0;" edge="1" parent="1" source="fLcq5E-ED35a-WWf0CEz-220" target="fLcq5E-ED35a-WWf0CEz-240">
                    <mxGeometry relative="1" as="geometry"/>
                </mxCell>
                <mxCell id="fLcq5E-ED35a-WWf0CEz-244" style="edgeStyle=none;html=1;entryX=0;entryY=0.5;entryDx=0;entryDy=0;fontSize=12;endArrow=none;endFill=0;" edge="1" parent="1" source="fLcq5E-ED35a-WWf0CEz-220" target="fLcq5E-ED35a-WWf0CEz-243">
                    <mxGeometry relative="1" as="geometry"/>
                </mxCell>
                <mxCell id="fLcq5E-ED35a-WWf0CEz-220" value="&lt;b&gt;USERS&lt;/b&gt;" style="whiteSpace=wrap;html=1;align=center;" vertex="1" parent="1">
                    <mxGeometry x="95" y="640" width="160" height="40" as="geometry"/>
                </mxCell>
                <mxCell id="fLcq5E-ED35a-WWf0CEz-222" style="edgeStyle=none;html=1;fontSize=12;endArrow=none;endFill=0;" edge="1" parent="1" source="fLcq5E-ED35a-WWf0CEz-221" target="fLcq5E-ED35a-WWf0CEz-220">
                    <mxGeometry relative="1" as="geometry"/>
                </mxCell>
                <mxCell id="fLcq5E-ED35a-WWf0CEz-221" value="&lt;b&gt;ID&lt;/b&gt;" style="ellipse;whiteSpace=wrap;html=1;align=center;fontStyle=4;" vertex="1" parent="1">
                    <mxGeometry x="250" y="750" width="80" height="40" as="geometry"/>
                </mxCell>
                <mxCell id="fLcq5E-ED35a-WWf0CEz-224" style="edgeStyle=none;html=1;entryX=0.571;entryY=1.106;entryDx=0;entryDy=0;entryPerimeter=0;fontSize=12;endArrow=none;endFill=0;" edge="1" parent="1" source="fLcq5E-ED35a-WWf0CEz-223" target="fLcq5E-ED35a-WWf0CEz-220">
                    <mxGeometry relative="1" as="geometry"/>
                </mxCell>
                <mxCell id="fLcq5E-ED35a-WWf0CEz-223" value="&lt;b&gt;NAME&lt;/b&gt;" style="ellipse;whiteSpace=wrap;html=1;align=center;" vertex="1" parent="1">
                    <mxGeometry x="220" y="800" width="100" height="40" as="geometry"/>
                </mxCell>
                <mxCell id="fLcq5E-ED35a-WWf0CEz-231" style="edgeStyle=none;html=1;entryX=0.5;entryY=1;entryDx=0;entryDy=0;fontSize=12;endArrow=none;endFill=0;" edge="1" parent="1" source="fLcq5E-ED35a-WWf0CEz-225" target="fLcq5E-ED35a-WWf0CEz-220">
                    <mxGeometry relative="1" as="geometry"/>
                </mxCell>
                <mxCell id="fLcq5E-ED35a-WWf0CEz-225" value="&lt;b&gt;EMAIL&lt;/b&gt;" style="ellipse;whiteSpace=wrap;html=1;align=center;" vertex="1" parent="1">
                    <mxGeometry x="155" y="840" width="100" height="40" as="geometry"/>
                </mxCell>
                <mxCell id="fLcq5E-ED35a-WWf0CEz-232" style="edgeStyle=none;html=1;entryX=0.451;entryY=0.986;entryDx=0;entryDy=0;entryPerimeter=0;fontSize=12;endArrow=none;endFill=0;" edge="1" parent="1" source="fLcq5E-ED35a-WWf0CEz-226" target="fLcq5E-ED35a-WWf0CEz-220">
                    <mxGeometry relative="1" as="geometry"/>
                </mxCell>
                <mxCell id="fLcq5E-ED35a-WWf0CEz-226" value="&lt;b&gt;EMAIL_VERIFIED_AT&lt;/b&gt;" style="ellipse;whiteSpace=wrap;html=1;align=center;" vertex="1" parent="1">
                    <mxGeometry x="55.5" y="880" width="149" height="50" as="geometry"/>
                </mxCell>
                <mxCell id="fLcq5E-ED35a-WWf0CEz-233" style="edgeStyle=none;html=1;entryX=0.346;entryY=0.986;entryDx=0;entryDy=0;entryPerimeter=0;fontSize=12;endArrow=none;endFill=0;" edge="1" parent="1" source="fLcq5E-ED35a-WWf0CEz-227" target="fLcq5E-ED35a-WWf0CEz-220">
                    <mxGeometry relative="1" as="geometry"/>
                </mxCell>
                <mxCell id="fLcq5E-ED35a-WWf0CEz-227" value="&lt;b&gt;PASSWORD&lt;/b&gt;" style="ellipse;whiteSpace=wrap;html=1;align=center;" vertex="1" parent="1">
                    <mxGeometry x="30" y="840" width="100" height="40" as="geometry"/>
                </mxCell>
                <mxCell id="fLcq5E-ED35a-WWf0CEz-234" style="edgeStyle=none;html=1;entryX=0.25;entryY=1;entryDx=0;entryDy=0;fontSize=12;endArrow=none;endFill=0;" edge="1" parent="1" source="fLcq5E-ED35a-WWf0CEz-228" target="fLcq5E-ED35a-WWf0CEz-220">
                    <mxGeometry relative="1" as="geometry"/>
                </mxCell>
                <mxCell id="fLcq5E-ED35a-WWf0CEz-228" value="&lt;b&gt;TYPE&lt;/b&gt;" style="ellipse;whiteSpace=wrap;html=1;align=center;" vertex="1" parent="1">
                    <mxGeometry x="-30" y="800" width="100" height="40" as="geometry"/>
                </mxCell>
                <mxCell id="fLcq5E-ED35a-WWf0CEz-235" style="edgeStyle=none;html=1;entryX=0.151;entryY=1.076;entryDx=0;entryDy=0;entryPerimeter=0;fontSize=12;endArrow=none;endFill=0;" edge="1" parent="1" source="fLcq5E-ED35a-WWf0CEz-230" target="fLcq5E-ED35a-WWf0CEz-220">
                    <mxGeometry relative="1" as="geometry"/>
                </mxCell>
                <mxCell id="fLcq5E-ED35a-WWf0CEz-230" value="&lt;b&gt;REMEMBER_TOKEN&lt;/b&gt;" style="ellipse;whiteSpace=wrap;html=1;align=center;" vertex="1" parent="1">
                    <mxGeometry x="-109" y="745" width="149" height="50" as="geometry"/>
                </mxCell>
                <mxCell id="fLcq5E-ED35a-WWf0CEz-238" style="edgeStyle=none;html=1;entryX=0;entryY=0.75;entryDx=0;entryDy=0;fontSize=12;endArrow=none;endFill=0;" edge="1" parent="1" source="fLcq5E-ED35a-WWf0CEz-236" target="fLcq5E-ED35a-WWf0CEz-220">
                    <mxGeometry relative="1" as="geometry"/>
                </mxCell>
                <mxCell id="fLcq5E-ED35a-WWf0CEz-236" value="&lt;b&gt;CREATED_AT&lt;/b&gt;" style="ellipse;whiteSpace=wrap;html=1;align=center;" vertex="1" parent="1">
                    <mxGeometry x="-110" y="690" width="100" height="40" as="geometry"/>
                </mxCell>
                <mxCell id="fLcq5E-ED35a-WWf0CEz-239" style="edgeStyle=none;html=1;entryX=0;entryY=0.5;entryDx=0;entryDy=0;fontSize=12;endArrow=none;endFill=0;" edge="1" parent="1" source="fLcq5E-ED35a-WWf0CEz-237" target="fLcq5E-ED35a-WWf0CEz-220">
                    <mxGeometry relative="1" as="geometry"/>
                </mxCell>
                <mxCell id="fLcq5E-ED35a-WWf0CEz-237" value="&lt;b&gt;UPDATED_AT&lt;/b&gt;" style="ellipse;whiteSpace=wrap;html=1;align=center;" vertex="1" parent="1">
                    <mxGeometry x="-70" y="640" width="100" height="40" as="geometry"/>
                </mxCell>
                <mxCell id="fLcq5E-ED35a-WWf0CEz-240" value="&lt;b&gt;HAS&lt;/b&gt;" style="shape=rhombus;perimeter=rhombusPerimeter;whiteSpace=wrap;html=1;align=center;" vertex="1" parent="1">
                    <mxGeometry x="280" y="630" width="120" height="60" as="geometry"/>
                </mxCell>
                <mxCell id="fLcq5E-ED35a-WWf0CEz-243" value="&lt;b&gt;HAS&lt;/b&gt;" style="shape=rhombus;perimeter=rhombusPerimeter;whiteSpace=wrap;html=1;align=center;" vertex="1" parent="1">
                    <mxGeometry x="330" y="690" width="120" height="60" as="geometry"/>
                </mxCell>
                <mxCell id="fLcq5E-ED35a-WWf0CEz-246" value="&lt;b&gt;FAILED_JOBS&lt;/b&gt;" style="whiteSpace=wrap;html=1;align=center;" vertex="1" parent="1">
                    <mxGeometry x="-824" y="305" width="160" height="40" as="geometry"/>
                </mxCell>
                <mxCell id="fLcq5E-ED35a-WWf0CEz-247" value="&lt;b&gt;MIGRATIONS&lt;/b&gt;" style="whiteSpace=wrap;html=1;align=center;" vertex="1" parent="1">
                    <mxGeometry x="-930" y="530" width="160" height="40" as="geometry"/>
                </mxCell>
                <mxCell id="fLcq5E-ED35a-WWf0CEz-249" value="&lt;b&gt;PASSWORD_RESET_TOKENS&lt;/b&gt;" style="whiteSpace=wrap;html=1;align=center;" vertex="1" parent="1">
                    <mxGeometry x="-520" y="570" width="200" height="40" as="geometry"/>
                </mxCell>
                <mxCell id="fLcq5E-ED35a-WWf0CEz-250" value="&lt;b&gt;PERSONAL_ACCESS_TOKENS&lt;/b&gt;" style="whiteSpace=wrap;html=1;align=center;" vertex="1" parent="1">
                    <mxGeometry x="-610" y="394" width="200" height="40" as="geometry"/>
                </mxCell>
                <mxCell id="fLcq5E-ED35a-WWf0CEz-251" value="&lt;b&gt;PASSWORD_RESETS&lt;/b&gt;" style="whiteSpace=wrap;html=1;align=center;" vertex="1" parent="1">
                    <mxGeometry x="-870" y="690" width="160" height="40" as="geometry"/>
                </mxCell>
                <mxCell id="fLcq5E-ED35a-WWf0CEz-255" style="edgeStyle=none;html=1;entryX=0.863;entryY=0.001;entryDx=0;entryDy=0;entryPerimeter=0;fontSize=12;endArrow=none;endFill=0;" edge="1" parent="1" source="fLcq5E-ED35a-WWf0CEz-252" target="fLcq5E-ED35a-WWf0CEz-246">
                    <mxGeometry relative="1" as="geometry"/>
                </mxCell>
                <mxCell id="fLcq5E-ED35a-WWf0CEz-252" value="&lt;b&gt;ID&lt;/b&gt;" style="ellipse;whiteSpace=wrap;html=1;align=center;fontStyle=4;" vertex="1" parent="1">
                    <mxGeometry x="-700" y="210" width="80" height="40" as="geometry"/>
                </mxCell>
                <mxCell id="fLcq5E-ED35a-WWf0CEz-256" style="edgeStyle=none;html=1;fontSize=12;endArrow=none;endFill=0;" edge="1" parent="1" source="fLcq5E-ED35a-WWf0CEz-253" target="fLcq5E-ED35a-WWf0CEz-250">
                    <mxGeometry relative="1" as="geometry"/>
                </mxCell>
                <mxCell id="fLcq5E-ED35a-WWf0CEz-253" value="&lt;b&gt;ID&lt;/b&gt;" style="ellipse;whiteSpace=wrap;html=1;align=center;fontStyle=4;" vertex="1" parent="1">
                    <mxGeometry x="-340" y="305" width="80" height="40" as="geometry"/>
                </mxCell>
                <mxCell id="fLcq5E-ED35a-WWf0CEz-258" style="edgeStyle=none;html=1;entryX=0.813;entryY=-0.074;entryDx=0;entryDy=0;entryPerimeter=0;fontSize=12;endArrow=none;endFill=0;" edge="1" parent="1" source="fLcq5E-ED35a-WWf0CEz-254" target="fLcq5E-ED35a-WWf0CEz-247">
                    <mxGeometry relative="1" as="geometry"/>
                </mxCell>
                <mxCell id="fLcq5E-ED35a-WWf0CEz-254" value="&lt;b&gt;ID&lt;/b&gt;" style="ellipse;whiteSpace=wrap;html=1;align=center;fontStyle=4;" vertex="1" parent="1">
                    <mxGeometry x="-810" y="450" width="80" height="40" as="geometry"/>
                </mxCell>
                <mxCell id="fLcq5E-ED35a-WWf0CEz-265" style="edgeStyle=none;html=1;entryX=0.75;entryY=0;entryDx=0;entryDy=0;fontSize=12;endArrow=none;endFill=0;" edge="1" parent="1" source="fLcq5E-ED35a-WWf0CEz-259" target="fLcq5E-ED35a-WWf0CEz-246">
                    <mxGeometry relative="1" as="geometry"/>
                </mxCell>
                <mxCell id="fLcq5E-ED35a-WWf0CEz-259" value="&lt;b&gt;UUID&lt;/b&gt;" style="ellipse;whiteSpace=wrap;html=1;align=center;" vertex="1" parent="1">
                    <mxGeometry x="-760" y="170" width="100" height="40" as="geometry"/>
                </mxCell>
                <mxCell id="fLcq5E-ED35a-WWf0CEz-266" style="edgeStyle=none;html=1;entryX=0.623;entryY=0.031;entryDx=0;entryDy=0;entryPerimeter=0;fontSize=12;endArrow=none;endFill=0;" edge="1" parent="1" source="fLcq5E-ED35a-WWf0CEz-260" target="fLcq5E-ED35a-WWf0CEz-246">
                    <mxGeometry relative="1" as="geometry"/>
                </mxCell>
                <mxCell id="fLcq5E-ED35a-WWf0CEz-260" value="&lt;b&gt;CONNECTION&lt;/b&gt;" style="ellipse;whiteSpace=wrap;html=1;align=center;" vertex="1" parent="1">
                    <mxGeometry x="-840" y="140" width="100" height="40" as="geometry"/>
                </mxCell>
                <mxCell id="fLcq5E-ED35a-WWf0CEz-267" style="edgeStyle=none;html=1;entryX=0.5;entryY=0;entryDx=0;entryDy=0;fontSize=12;endArrow=none;endFill=0;" edge="1" parent="1" source="fLcq5E-ED35a-WWf0CEz-261" target="fLcq5E-ED35a-WWf0CEz-246">
                    <mxGeometry relative="1" as="geometry"/>
                </mxCell>
                <mxCell id="fLcq5E-ED35a-WWf0CEz-261" value="&lt;b&gt;QUEUE&lt;/b&gt;" style="ellipse;whiteSpace=wrap;html=1;align=center;" vertex="1" parent="1">
                    <mxGeometry x="-930" y="110" width="100" height="40" as="geometry"/>
                </mxCell>
                <mxCell id="fLcq5E-ED35a-WWf0CEz-268" style="edgeStyle=none;html=1;entryX=0.443;entryY=0.031;entryDx=0;entryDy=0;entryPerimeter=0;fontSize=12;endArrow=none;endFill=0;" edge="1" parent="1" source="fLcq5E-ED35a-WWf0CEz-262" target="fLcq5E-ED35a-WWf0CEz-246">
                    <mxGeometry relative="1" as="geometry"/>
                </mxCell>
                <mxCell id="fLcq5E-ED35a-WWf0CEz-262" value="&lt;b&gt;PAYLOAD&lt;/b&gt;" style="ellipse;whiteSpace=wrap;html=1;align=center;" vertex="1" parent="1">
                    <mxGeometry x="-950" y="160" width="100" height="40" as="geometry"/>
                </mxCell>
                <mxCell id="fLcq5E-ED35a-WWf0CEz-269" style="edgeStyle=none;html=1;fontSize=12;endArrow=none;endFill=0;" edge="1" parent="1" source="fLcq5E-ED35a-WWf0CEz-263" target="fLcq5E-ED35a-WWf0CEz-246">
                    <mxGeometry relative="1" as="geometry"/>
                </mxCell>
                <mxCell id="fLcq5E-ED35a-WWf0CEz-263" value="&lt;b&gt;EXCEPTION&lt;/b&gt;" style="ellipse;whiteSpace=wrap;html=1;align=center;" vertex="1" parent="1">
                    <mxGeometry x="-970" y="220" width="100" height="40" as="geometry"/>
                </mxCell>
                <mxCell id="fLcq5E-ED35a-WWf0CEz-271" style="edgeStyle=none;html=1;entryX=0;entryY=0.5;entryDx=0;entryDy=0;fontSize=12;endArrow=none;endFill=0;" edge="1" parent="1" source="fLcq5E-ED35a-WWf0CEz-264" target="fLcq5E-ED35a-WWf0CEz-246">
                    <mxGeometry relative="1" as="geometry"/>
                </mxCell>
                <mxCell id="fLcq5E-ED35a-WWf0CEz-264" value="&lt;b&gt;FAILED_AT&lt;/b&gt;" style="ellipse;whiteSpace=wrap;html=1;align=center;" vertex="1" parent="1">
                    <mxGeometry x="-980" y="285" width="100" height="40" as="geometry"/>
                </mxCell>
                <mxCell id="fLcq5E-ED35a-WWf0CEz-273" style="edgeStyle=none;html=1;fontSize=12;endArrow=none;endFill=0;" edge="1" parent="1" source="fLcq5E-ED35a-WWf0CEz-272" target="fLcq5E-ED35a-WWf0CEz-247">
                    <mxGeometry relative="1" as="geometry"/>
                </mxCell>
                <mxCell id="fLcq5E-ED35a-WWf0CEz-272" value="&lt;b&gt;MIGRATION&lt;/b&gt;" style="ellipse;whiteSpace=wrap;html=1;align=center;" vertex="1" parent="1">
                    <mxGeometry x="-870" y="400" width="100" height="40" as="geometry"/>
                </mxCell>
                <mxCell id="fLcq5E-ED35a-WWf0CEz-275" style="edgeStyle=none;html=1;entryX=0.453;entryY=0.016;entryDx=0;entryDy=0;entryPerimeter=0;fontSize=12;endArrow=none;endFill=0;" edge="1" parent="1" source="fLcq5E-ED35a-WWf0CEz-274" target="fLcq5E-ED35a-WWf0CEz-247">
                    <mxGeometry relative="1" as="geometry"/>
                </mxCell>
                <mxCell id="fLcq5E-ED35a-WWf0CEz-274" value="&lt;b&gt;BATCH&lt;/b&gt;" style="ellipse;whiteSpace=wrap;html=1;align=center;" vertex="1" parent="1">
                    <mxGeometry x="-970" y="425" width="100" height="40" as="geometry"/>
                </mxCell>
                <mxCell id="fLcq5E-ED35a-WWf0CEz-281" style="edgeStyle=none;html=1;fontSize=12;endArrow=none;endFill=0;" edge="1" parent="1" source="fLcq5E-ED35a-WWf0CEz-276" target="fLcq5E-ED35a-WWf0CEz-251">
                    <mxGeometry relative="1" as="geometry"/>
                </mxCell>
                <mxCell id="fLcq5E-ED35a-WWf0CEz-276" value="&lt;b&gt;EMAIL&lt;/b&gt;" style="ellipse;whiteSpace=wrap;html=1;align=center;" vertex="1" parent="1">
                    <mxGeometry x="-740" y="610" width="100" height="40" as="geometry"/>
                </mxCell>
                <mxCell id="fLcq5E-ED35a-WWf0CEz-286" style="edgeStyle=none;html=1;entryX=0.436;entryY=1.056;entryDx=0;entryDy=0;entryPerimeter=0;fontSize=12;endArrow=none;endFill=0;" edge="1" parent="1" source="fLcq5E-ED35a-WWf0CEz-277" target="fLcq5E-ED35a-WWf0CEz-249">
                    <mxGeometry relative="1" as="geometry"/>
                </mxCell>
                <mxCell id="fLcq5E-ED35a-WWf0CEz-277" value="&lt;b&gt;EMAIL&lt;/b&gt;" style="ellipse;whiteSpace=wrap;html=1;align=center;" vertex="1" parent="1">
                    <mxGeometry x="-460" y="670" width="100" height="40" as="geometry"/>
                </mxCell>
                <mxCell id="fLcq5E-ED35a-WWf0CEz-282" style="edgeStyle=none;html=1;entryX=0.5;entryY=0;entryDx=0;entryDy=0;fontSize=12;endArrow=none;endFill=0;" edge="1" parent="1" source="fLcq5E-ED35a-WWf0CEz-278" target="fLcq5E-ED35a-WWf0CEz-251">
                    <mxGeometry relative="1" as="geometry"/>
                </mxCell>
                <mxCell id="fLcq5E-ED35a-WWf0CEz-278" value="&lt;b&gt;TOKEN&lt;/b&gt;" style="ellipse;whiteSpace=wrap;html=1;align=center;" vertex="1" parent="1">
                    <mxGeometry x="-840" y="590" width="100" height="40" as="geometry"/>
                </mxCell>
                <mxCell id="fLcq5E-ED35a-WWf0CEz-287" style="edgeStyle=none;html=1;entryX=0.75;entryY=1;entryDx=0;entryDy=0;fontSize=12;endArrow=none;endFill=0;" edge="1" parent="1" source="fLcq5E-ED35a-WWf0CEz-279" target="fLcq5E-ED35a-WWf0CEz-249">
                    <mxGeometry relative="1" as="geometry"/>
                </mxCell>
                <mxCell id="fLcq5E-ED35a-WWf0CEz-279" value="&lt;b&gt;TOKEN&lt;/b&gt;" style="ellipse;whiteSpace=wrap;html=1;align=center;" vertex="1" parent="1">
                    <mxGeometry x="-350" y="640" width="100" height="40" as="geometry"/>
                </mxCell>
                <mxCell id="fLcq5E-ED35a-WWf0CEz-283" style="edgeStyle=none;html=1;fontSize=12;endArrow=none;endFill=0;" edge="1" parent="1" source="fLcq5E-ED35a-WWf0CEz-280" target="fLcq5E-ED35a-WWf0CEz-251">
                    <mxGeometry relative="1" as="geometry"/>
                </mxCell>
                <mxCell id="fLcq5E-ED35a-WWf0CEz-280" value="&lt;b&gt;CREATED_AT&lt;/b&gt;" style="ellipse;whiteSpace=wrap;html=1;align=center;" vertex="1" parent="1">
                    <mxGeometry x="-930" y="620" width="100" height="40" as="geometry"/>
                </mxCell>
                <mxCell id="fLcq5E-ED35a-WWf0CEz-285" style="edgeStyle=none;html=1;entryX=0.106;entryY=1.086;entryDx=0;entryDy=0;entryPerimeter=0;fontSize=12;endArrow=none;endFill=0;" edge="1" parent="1" source="fLcq5E-ED35a-WWf0CEz-284" target="fLcq5E-ED35a-WWf0CEz-249">
                    <mxGeometry relative="1" as="geometry"/>
                </mxCell>
                <mxCell id="fLcq5E-ED35a-WWf0CEz-284" value="&lt;b&gt;CREATED_AT&lt;/b&gt;" style="ellipse;whiteSpace=wrap;html=1;align=center;" vertex="1" parent="1">
                    <mxGeometry x="-570" y="640" width="100" height="40" as="geometry"/>
                </mxCell>
                <mxCell id="fLcq5E-ED35a-WWf0CEz-297" style="edgeStyle=none;html=1;entryX=0.688;entryY=0.026;entryDx=0;entryDy=0;entryPerimeter=0;fontSize=12;endArrow=none;endFill=0;" edge="1" parent="1" source="fLcq5E-ED35a-WWf0CEz-288" target="fLcq5E-ED35a-WWf0CEz-250">
                    <mxGeometry relative="1" as="geometry"/>
                </mxCell>
                <mxCell id="fLcq5E-ED35a-WWf0CEz-288" value="&lt;b&gt;TOKENABLE_TYPE&lt;/b&gt;" style="ellipse;whiteSpace=wrap;html=1;align=center;" vertex="1" parent="1">
                    <mxGeometry x="-365" y="255" width="130" height="45" as="geometry"/>
                </mxCell>
                <mxCell id="fLcq5E-ED35a-WWf0CEz-298" style="edgeStyle=none;html=1;entryX=0.652;entryY=0.026;entryDx=0;entryDy=0;entryPerimeter=0;fontSize=12;endArrow=none;endFill=0;" edge="1" parent="1" source="fLcq5E-ED35a-WWf0CEz-289" target="fLcq5E-ED35a-WWf0CEz-250">
                    <mxGeometry relative="1" as="geometry"/>
                </mxCell>
                <mxCell id="fLcq5E-ED35a-WWf0CEz-289" value="&lt;b&gt;TOKENABLE_ID&lt;/b&gt;" style="ellipse;whiteSpace=wrap;html=1;align=center;" vertex="1" parent="1">
                    <mxGeometry x="-420" y="207.5" width="130" height="45" as="geometry"/>
                </mxCell>
                <mxCell id="fLcq5E-ED35a-WWf0CEz-299" style="edgeStyle=none;html=1;entryX=0.65;entryY=0.15;entryDx=0;entryDy=0;entryPerimeter=0;fontSize=12;endArrow=none;endFill=0;" edge="1" parent="1" source="fLcq5E-ED35a-WWf0CEz-290" target="fLcq5E-ED35a-WWf0CEz-250">
                    <mxGeometry relative="1" as="geometry"/>
                </mxCell>
                <mxCell id="fLcq5E-ED35a-WWf0CEz-290" value="&lt;b&gt;NAME&lt;/b&gt;" style="ellipse;whiteSpace=wrap;html=1;align=center;" vertex="1" parent="1">
                    <mxGeometry x="-490" y="170" width="100" height="40" as="geometry"/>
                </mxCell>
                <mxCell id="fLcq5E-ED35a-WWf0CEz-300" style="edgeStyle=none;html=1;fontSize=12;endArrow=none;endFill=0;" edge="1" parent="1" source="fLcq5E-ED35a-WWf0CEz-291" target="fLcq5E-ED35a-WWf0CEz-250">
                    <mxGeometry relative="1" as="geometry"/>
                </mxCell>
                <mxCell id="fLcq5E-ED35a-WWf0CEz-291" value="&lt;b&gt;TOKEN&lt;/b&gt;" style="ellipse;whiteSpace=wrap;html=1;align=center;" vertex="1" parent="1">
                    <mxGeometry x="-570" y="207.5" width="100" height="40" as="geometry"/>
                </mxCell>
                <mxCell id="fLcq5E-ED35a-WWf0CEz-301" style="edgeStyle=none;html=1;fontSize=12;endArrow=none;endFill=0;" edge="1" parent="1" source="fLcq5E-ED35a-WWf0CEz-292" target="fLcq5E-ED35a-WWf0CEz-250">
                    <mxGeometry relative="1" as="geometry"/>
                </mxCell>
                <mxCell id="fLcq5E-ED35a-WWf0CEz-292" value="&lt;b&gt;ABILITIES&lt;/b&gt;" style="ellipse;whiteSpace=wrap;html=1;align=center;" vertex="1" parent="1">
                    <mxGeometry x="-630" y="255" width="100" height="40" as="geometry"/>
                </mxCell>
                <mxCell id="fLcq5E-ED35a-WWf0CEz-302" style="edgeStyle=none;html=1;fontSize=12;endArrow=none;endFill=0;" edge="1" parent="1" source="fLcq5E-ED35a-WWf0CEz-293" target="fLcq5E-ED35a-WWf0CEz-250">
                    <mxGeometry relative="1" as="geometry"/>
                </mxCell>
                <mxCell id="fLcq5E-ED35a-WWf0CEz-293" value="&lt;b&gt;LAST_USED_AT&lt;/b&gt;" style="ellipse;whiteSpace=wrap;html=1;align=center;" vertex="1" parent="1">
                    <mxGeometry x="-750" y="360" width="120" height="40" as="geometry"/>
                </mxCell>
                <mxCell id="fLcq5E-ED35a-WWf0CEz-303" style="edgeStyle=none;html=1;entryX=0.1;entryY=0.9;entryDx=0;entryDy=0;entryPerimeter=0;fontSize=12;endArrow=none;endFill=0;" edge="1" parent="1" source="fLcq5E-ED35a-WWf0CEz-294" target="fLcq5E-ED35a-WWf0CEz-250">
                    <mxGeometry relative="1" as="geometry"/>
                </mxCell>
                <mxCell id="fLcq5E-ED35a-WWf0CEz-294" value="&lt;b&gt;CREATED_AT&lt;/b&gt;" style="ellipse;whiteSpace=wrap;html=1;align=center;" vertex="1" parent="1">
                    <mxGeometry x="-700" y="470" width="100" height="40" as="geometry"/>
                </mxCell>
                <mxCell id="fLcq5E-ED35a-WWf0CEz-304" value="" style="edgeStyle=none;html=1;fontSize=12;endArrow=none;endFill=0;" edge="1" parent="1" source="fLcq5E-ED35a-WWf0CEz-295" target="fLcq5E-ED35a-WWf0CEz-250">
                    <mxGeometry relative="1" as="geometry"/>
                </mxCell>
                <mxCell id="fLcq5E-ED35a-WWf0CEz-295" value="&lt;b&gt;EXPIRES_AT&lt;/b&gt;" style="ellipse;whiteSpace=wrap;html=1;align=center;" vertex="1" parent="1">
                    <mxGeometry x="-740" y="420" width="100" height="40" as="geometry"/>
                </mxCell>
                <mxCell id="fLcq5E-ED35a-WWf0CEz-305" style="edgeStyle=none;html=1;fontSize=12;endArrow=none;endFill=0;" edge="1" parent="1" source="fLcq5E-ED35a-WWf0CEz-296" target="fLcq5E-ED35a-WWf0CEz-250">
                    <mxGeometry relative="1" as="geometry"/>
                </mxCell>
                <mxCell id="fLcq5E-ED35a-WWf0CEz-296" value="&lt;b&gt;UPDATED_AT&lt;/b&gt;" style="ellipse;whiteSpace=wrap;html=1;align=center;" vertex="1" parent="1">
                    <mxGeometry x="-584" y="490" width="100" height="40" as="geometry"/>
                </mxCell>
            </root>
        </mxGraphModel>
    </diagram>
    <diagram id="B0keb7k7hPq6i7QyEcYC" name="Page-2">
        <mxGraphModel grid="1" page="1" gridSize="10" guides="1" tooltips="1" connect="1" arrows="1" fold="1" pageScale="1" pageWidth="1169" pageHeight="827" math="0" shadow="0">
            <root>
                <mxCell id="0"/>
                <mxCell id="1" parent="0"/>
                <mxCell id="0UzY4HS0dQBs1e5G8GHy-1" style="edgeStyle=none;html=1;endArrow=none;endFill=0;" edge="1" parent="1" source="0UzY4HS0dQBs1e5G8GHy-26" target="0UzY4HS0dQBs1e5G8GHy-5">
                    <mxGeometry relative="1" as="geometry"/>
                </mxCell>
                <mxCell id="0UzY4HS0dQBs1e5G8GHy-2" style="edgeStyle=none;html=1;endArrow=none;endFill=0;" edge="1" parent="1" source="0UzY4HS0dQBs1e5G8GHy-55" target="0UzY4HS0dQBs1e5G8GHy-40">
                    <mxGeometry relative="1" as="geometry"/>
                </mxCell>
                <mxCell id="0UzY4HS0dQBs1e5G8GHy-3" style="edgeStyle=none;html=1;entryX=0.5;entryY=0;entryDx=0;entryDy=0;endArrow=none;endFill=0;" edge="1" parent="1" source="0UzY4HS0dQBs1e5G8GHy-5" target="0UzY4HS0dQBs1e5G8GHy-77">
                    <mxGeometry relative="1" as="geometry"/>
                </mxCell>
                <mxCell id="0UzY4HS0dQBs1e5G8GHy-4" style="edgeStyle=none;html=1;entryX=0;entryY=0.5;entryDx=0;entryDy=0;endArrow=none;endFill=0;" edge="1" parent="1" source="0UzY4HS0dQBs1e5G8GHy-5" target="0UzY4HS0dQBs1e5G8GHy-81">
                    <mxGeometry relative="1" as="geometry"/>
                </mxCell>
                <mxCell id="0UzY4HS0dQBs1e5G8GHy-5" value="&lt;b&gt;STUDENT&lt;/b&gt;" style="whiteSpace=wrap;html=1;align=center;" vertex="1" parent="1">
                    <mxGeometry x="210" y="250" width="160" height="40" as="geometry"/>
                </mxCell>
                <mxCell id="0UzY4HS0dQBs1e5G8GHy-6" style="edgeStyle=none;html=1;entryX=0.5;entryY=0;entryDx=0;entryDy=0;endArrow=none;endFill=0;" edge="1" parent="1" source="0UzY4HS0dQBs1e5G8GHy-7" target="0UzY4HS0dQBs1e5G8GHy-79">
                    <mxGeometry relative="1" as="geometry"/>
                </mxCell>
                <mxCell id="0UzY4HS0dQBs1e5G8GHy-7" value="&lt;b&gt;STUDENT_DETAILS&lt;/b&gt;" style="whiteSpace=wrap;html=1;align=center;" vertex="1" parent="1">
                    <mxGeometry x="170" y="410" width="160" height="40" as="geometry"/>
                </mxCell>
                <mxCell id="0UzY4HS0dQBs1e5G8GHy-8" style="edgeStyle=none;html=1;entryX=0;entryY=0.5;entryDx=0;entryDy=0;endArrow=none;endFill=0;" edge="1" parent="1" source="0UzY4HS0dQBs1e5G8GHy-9" target="0UzY4HS0dQBs1e5G8GHy-5">
                    <mxGeometry relative="1" as="geometry"/>
                </mxCell>
                <mxCell id="0UzY4HS0dQBs1e5G8GHy-9" value="&lt;b&gt;ID&lt;/b&gt;" style="ellipse;whiteSpace=wrap;html=1;align=center;fontStyle=4;" vertex="1" parent="1">
                    <mxGeometry x="70" y="280" width="80" height="40" as="geometry"/>
                </mxCell>
                <mxCell id="0UzY4HS0dQBs1e5G8GHy-10" style="edgeStyle=none;html=1;entryX=0;entryY=0;entryDx=0;entryDy=0;endArrow=none;endFill=0;" edge="1" parent="1" source="0UzY4HS0dQBs1e5G8GHy-11" target="0UzY4HS0dQBs1e5G8GHy-7">
                    <mxGeometry relative="1" as="geometry"/>
                </mxCell>
                <mxCell id="0UzY4HS0dQBs1e5G8GHy-11" value="&lt;b&gt;REG_NO&lt;/b&gt;" style="ellipse;whiteSpace=wrap;html=1;align=center;fontStyle=4;" vertex="1" parent="1">
                    <mxGeometry x="80" y="370" width="80" height="40" as="geometry"/>
                </mxCell>
                <mxCell id="0UzY4HS0dQBs1e5G8GHy-12" style="edgeStyle=none;html=1;endArrow=none;endFill=0;" edge="1" parent="1" source="0UzY4HS0dQBs1e5G8GHy-13" target="0UzY4HS0dQBs1e5G8GHy-5">
                    <mxGeometry relative="1" as="geometry"/>
                </mxCell>
                <mxCell id="0UzY4HS0dQBs1e5G8GHy-13" value="&lt;b&gt;NAME&lt;/b&gt;" style="ellipse;whiteSpace=wrap;html=1;align=center;" vertex="1" parent="1">
                    <mxGeometry x="170" y="100" width="100" height="40" as="geometry"/>
                </mxCell>
                <mxCell id="0UzY4HS0dQBs1e5G8GHy-14" style="edgeStyle=none;html=1;entryX=0.022;entryY=0.696;entryDx=0;entryDy=0;entryPerimeter=0;endArrow=none;endFill=0;" edge="1" parent="1" source="0UzY4HS0dQBs1e5G8GHy-15" target="0UzY4HS0dQBs1e5G8GHy-13">
                    <mxGeometry relative="1" as="geometry"/>
                </mxCell>
                <mxCell id="0UzY4HS0dQBs1e5G8GHy-15" value="&lt;b&gt;FIRST_NAME&lt;/b&gt;" style="ellipse;whiteSpace=wrap;html=1;align=center;" vertex="1" parent="1">
                    <mxGeometry x="20" y="100" width="120" height="40" as="geometry"/>
                </mxCell>
                <mxCell id="0UzY4HS0dQBs1e5G8GHy-16" style="edgeStyle=none;html=1;entryX=0;entryY=0;entryDx=0;entryDy=0;endArrow=none;endFill=0;" edge="1" parent="1" source="0UzY4HS0dQBs1e5G8GHy-17" target="0UzY4HS0dQBs1e5G8GHy-13">
                    <mxGeometry relative="1" as="geometry"/>
                </mxCell>
                <mxCell id="0UzY4HS0dQBs1e5G8GHy-17" value="&lt;b&gt;MIDDLE_NAME&lt;/b&gt;" style="ellipse;whiteSpace=wrap;html=1;align=center;" vertex="1" parent="1">
                    <mxGeometry x="50" y="50" width="120" height="40" as="geometry"/>
                </mxCell>
                <mxCell id="0UzY4HS0dQBs1e5G8GHy-18" style="edgeStyle=none;html=1;entryX=0.5;entryY=0;entryDx=0;entryDy=0;endArrow=none;endFill=0;" edge="1" parent="1" source="0UzY4HS0dQBs1e5G8GHy-19" target="0UzY4HS0dQBs1e5G8GHy-13">
                    <mxGeometry relative="1" as="geometry"/>
                </mxCell>
                <mxCell id="0UzY4HS0dQBs1e5G8GHy-19" value="&lt;b&gt;LAST_NAME&lt;/b&gt;" style="ellipse;whiteSpace=wrap;html=1;align=center;" vertex="1" parent="1">
                    <mxGeometry x="175" y="30" width="120" height="40" as="geometry"/>
                </mxCell>
                <mxCell id="0UzY4HS0dQBs1e5G8GHy-20" style="edgeStyle=none;html=1;endArrow=none;endFill=0;" edge="1" parent="1" source="0UzY4HS0dQBs1e5G8GHy-21" target="0UzY4HS0dQBs1e5G8GHy-5">
                    <mxGeometry relative="1" as="geometry"/>
                </mxCell>
                <mxCell id="0UzY4HS0dQBs1e5G8GHy-21" value="&lt;b&gt;EMAIL&lt;/b&gt;" style="ellipse;whiteSpace=wrap;html=1;align=center;" vertex="1" parent="1">
                    <mxGeometry x="90" y="160" width="100" height="40" as="geometry"/>
                </mxCell>
                <mxCell id="0UzY4HS0dQBs1e5G8GHy-22" style="edgeStyle=none;html=1;endArrow=none;endFill=0;" edge="1" parent="1" source="0UzY4HS0dQBs1e5G8GHy-23" target="0UzY4HS0dQBs1e5G8GHy-5">
                    <mxGeometry relative="1" as="geometry"/>
                </mxCell>
                <mxCell id="0UzY4HS0dQBs1e5G8GHy-23" value="&lt;b&gt;GENDER&lt;/b&gt;" style="ellipse;whiteSpace=wrap;html=1;align=center;" vertex="1" parent="1">
                    <mxGeometry x="30" y="220" width="100" height="40" as="geometry"/>
                </mxCell>
                <mxCell id="0UzY4HS0dQBs1e5G8GHy-24" style="edgeStyle=none;html=1;endArrow=none;endFill=0;" edge="1" parent="1" source="0UzY4HS0dQBs1e5G8GHy-25" target="0UzY4HS0dQBs1e5G8GHy-5">
                    <mxGeometry relative="1" as="geometry"/>
                </mxCell>
                <mxCell id="0UzY4HS0dQBs1e5G8GHy-25" value="&lt;b&gt;DOB&lt;/b&gt;" style="ellipse;whiteSpace=wrap;html=1;align=center;" vertex="1" parent="1">
                    <mxGeometry x="270" y="140" width="100" height="40" as="geometry"/>
                </mxCell>
                <mxCell id="0UzY4HS0dQBs1e5G8GHy-26" value="&lt;b&gt;AGE&lt;/b&gt;" style="ellipse;whiteSpace=wrap;html=1;align=center;dashed=1;" vertex="1" parent="1">
                    <mxGeometry x="330" y="60" width="100" height="40" as="geometry"/>
                </mxCell>
                <mxCell id="0UzY4HS0dQBs1e5G8GHy-27" style="edgeStyle=none;html=1;entryX=0;entryY=0.5;entryDx=0;entryDy=0;endArrow=none;endFill=0;" edge="1" parent="1" source="0UzY4HS0dQBs1e5G8GHy-28" target="0UzY4HS0dQBs1e5G8GHy-7">
                    <mxGeometry relative="1" as="geometry"/>
                </mxCell>
                <mxCell id="0UzY4HS0dQBs1e5G8GHy-28" value="&lt;b&gt;STUDENT_ID&lt;/b&gt;" style="ellipse;whiteSpace=wrap;html=1;align=center;fontStyle=4;" vertex="1" parent="1">
                    <mxGeometry x="60" y="430" width="100" height="40" as="geometry"/>
                </mxCell>
                <mxCell id="0UzY4HS0dQBs1e5G8GHy-29" style="edgeStyle=none;html=1;entryX=0.25;entryY=1;entryDx=0;entryDy=0;endArrow=none;endFill=0;" edge="1" parent="1" source="0UzY4HS0dQBs1e5G8GHy-30" target="0UzY4HS0dQBs1e5G8GHy-7">
                    <mxGeometry relative="1" as="geometry"/>
                </mxCell>
                <mxCell id="0UzY4HS0dQBs1e5G8GHy-30" value="&lt;b&gt;SYMBOL_NO&lt;/b&gt;" style="ellipse;whiteSpace=wrap;html=1;align=center;fontStyle=4;" vertex="1" parent="1">
                    <mxGeometry x="100" y="480" width="100" height="40" as="geometry"/>
                </mxCell>
                <mxCell id="0UzY4HS0dQBs1e5G8GHy-31" style="edgeStyle=none;html=1;entryX=0.414;entryY=1.106;entryDx=0;entryDy=0;entryPerimeter=0;endArrow=none;endFill=0;" edge="1" parent="1" source="0UzY4HS0dQBs1e5G8GHy-32" target="0UzY4HS0dQBs1e5G8GHy-7">
                    <mxGeometry relative="1" as="geometry"/>
                </mxCell>
                <mxCell id="0UzY4HS0dQBs1e5G8GHy-32" value="&lt;b&gt;FACULTY&lt;/b&gt;" style="ellipse;whiteSpace=wrap;html=1;align=center;" vertex="1" parent="1">
                    <mxGeometry x="190" y="520" width="100" height="40" as="geometry"/>
                </mxCell>
                <mxCell id="0UzY4HS0dQBs1e5G8GHy-33" style="edgeStyle=none;html=1;entryX=0.571;entryY=1.046;entryDx=0;entryDy=0;entryPerimeter=0;endArrow=none;endFill=0;" edge="1" parent="1" source="0UzY4HS0dQBs1e5G8GHy-34" target="0UzY4HS0dQBs1e5G8GHy-7">
                    <mxGeometry relative="1" as="geometry"/>
                </mxCell>
                <mxCell id="0UzY4HS0dQBs1e5G8GHy-34" value="&lt;b&gt;PROGRAM&lt;/b&gt;" style="ellipse;whiteSpace=wrap;html=1;align=center;" vertex="1" parent="1">
                    <mxGeometry x="380" y="470" width="100" height="40" as="geometry"/>
                </mxCell>
                <mxCell id="0UzY4HS0dQBs1e5G8GHy-35" style="edgeStyle=none;html=1;endArrow=none;endFill=0;" edge="1" parent="1" source="0UzY4HS0dQBs1e5G8GHy-36" target="0UzY4HS0dQBs1e5G8GHy-7">
                    <mxGeometry relative="1" as="geometry"/>
                </mxCell>
                <mxCell id="0UzY4HS0dQBs1e5G8GHy-36" value="&lt;b&gt;SEMESTER&lt;/b&gt;" style="ellipse;whiteSpace=wrap;html=1;align=center;" vertex="1" parent="1">
                    <mxGeometry x="370" y="410" width="100" height="40" as="geometry"/>
                </mxCell>
                <mxCell id="0UzY4HS0dQBs1e5G8GHy-37" style="edgeStyle=none;html=1;endArrow=none;endFill=0;" edge="1" parent="1" source="0UzY4HS0dQBs1e5G8GHy-38" target="0UzY4HS0dQBs1e5G8GHy-5">
                    <mxGeometry relative="1" as="geometry"/>
                </mxCell>
                <mxCell id="0UzY4HS0dQBs1e5G8GHy-38" value="&lt;b&gt;TIMESTAMPS&lt;/b&gt;" style="ellipse;whiteSpace=wrap;html=1;align=center;" vertex="1" parent="1">
                    <mxGeometry x="400" y="130" width="100" height="40" as="geometry"/>
                </mxCell>
                <mxCell id="0UzY4HS0dQBs1e5G8GHy-39" style="edgeStyle=none;html=1;entryX=0;entryY=0.5;entryDx=0;entryDy=0;endArrow=none;endFill=0;" edge="1" parent="1" source="0UzY4HS0dQBs1e5G8GHy-40" target="0UzY4HS0dQBs1e5G8GHy-84">
                    <mxGeometry relative="1" as="geometry"/>
                </mxCell>
                <mxCell id="0UzY4HS0dQBs1e5G8GHy-40" value="&lt;b&gt;STUDENT_ADDRESS&lt;br&gt;&lt;/b&gt;" style="whiteSpace=wrap;html=1;align=center;" vertex="1" parent="1">
                    <mxGeometry x="315" y="640" width="160" height="40" as="geometry"/>
                </mxCell>
                <mxCell id="0UzY4HS0dQBs1e5G8GHy-41" style="edgeStyle=none;html=1;entryX=0;entryY=1;entryDx=0;entryDy=0;endArrow=none;endFill=0;" edge="1" parent="1" source="0UzY4HS0dQBs1e5G8GHy-42" target="0UzY4HS0dQBs1e5G8GHy-40">
                    <mxGeometry relative="1" as="geometry"/>
                </mxCell>
                <mxCell id="0UzY4HS0dQBs1e5G8GHy-42" value="&lt;b&gt;P_DISTRICT&lt;/b&gt;" style="ellipse;whiteSpace=wrap;html=1;align=center;" vertex="1" parent="1">
                    <mxGeometry x="175" y="700" width="100" height="40" as="geometry"/>
                </mxCell>
                <mxCell id="0UzY4HS0dQBs1e5G8GHy-43" style="edgeStyle=none;html=1;entryX=0;entryY=0.5;entryDx=0;entryDy=0;endArrow=none;endFill=0;" edge="1" parent="1" source="0UzY4HS0dQBs1e5G8GHy-44" target="0UzY4HS0dQBs1e5G8GHy-40">
                    <mxGeometry relative="1" as="geometry"/>
                </mxCell>
                <mxCell id="0UzY4HS0dQBs1e5G8GHy-44" value="&lt;b&gt;P_PROVINCE&lt;/b&gt;" style="ellipse;whiteSpace=wrap;html=1;align=center;" vertex="1" parent="1">
                    <mxGeometry x="175" y="640" width="100" height="40" as="geometry"/>
                </mxCell>
                <mxCell id="0UzY4HS0dQBs1e5G8GHy-45" style="edgeStyle=none;html=1;entryX=0.096;entryY=1.066;entryDx=0;entryDy=0;entryPerimeter=0;endArrow=none;endFill=0;" edge="1" parent="1" source="0UzY4HS0dQBs1e5G8GHy-46" target="0UzY4HS0dQBs1e5G8GHy-40">
                    <mxGeometry relative="1" as="geometry"/>
                </mxCell>
                <mxCell id="0UzY4HS0dQBs1e5G8GHy-46" value="&lt;b&gt;P_TOLE&lt;/b&gt;" style="ellipse;whiteSpace=wrap;html=1;align=center;" vertex="1" parent="1">
                    <mxGeometry x="275" y="710" width="100" height="40" as="geometry"/>
                </mxCell>
                <mxCell id="0UzY4HS0dQBs1e5G8GHy-47" style="edgeStyle=none;html=1;endArrow=none;endFill=0;" edge="1" parent="1" source="0UzY4HS0dQBs1e5G8GHy-48" target="0UzY4HS0dQBs1e5G8GHy-40">
                    <mxGeometry relative="1" as="geometry"/>
                </mxCell>
                <mxCell id="0UzY4HS0dQBs1e5G8GHy-48" value="&lt;b&gt;P_WARD&lt;/b&gt;" style="ellipse;whiteSpace=wrap;html=1;align=center;" vertex="1" parent="1">
                    <mxGeometry x="285" y="760" width="100" height="40" as="geometry"/>
                </mxCell>
                <mxCell id="0UzY4HS0dQBs1e5G8GHy-49" style="edgeStyle=none;html=1;entryX=0.576;entryY=0.976;entryDx=0;entryDy=0;entryPerimeter=0;endArrow=none;endFill=0;" edge="1" parent="1" source="0UzY4HS0dQBs1e5G8GHy-50" target="0UzY4HS0dQBs1e5G8GHy-40">
                    <mxGeometry relative="1" as="geometry"/>
                </mxCell>
                <mxCell id="0UzY4HS0dQBs1e5G8GHy-50" value="&lt;b&gt;T_PROVINCE&lt;/b&gt;" style="ellipse;whiteSpace=wrap;html=1;align=center;" vertex="1" parent="1">
                    <mxGeometry x="405" y="760" width="100" height="40" as="geometry"/>
                </mxCell>
                <mxCell id="0UzY4HS0dQBs1e5G8GHy-51" style="edgeStyle=none;html=1;entryX=0.75;entryY=1;entryDx=0;entryDy=0;endArrow=none;endFill=0;" edge="1" parent="1" source="0UzY4HS0dQBs1e5G8GHy-52" target="0UzY4HS0dQBs1e5G8GHy-40">
                    <mxGeometry relative="1" as="geometry"/>
                </mxCell>
                <mxCell id="0UzY4HS0dQBs1e5G8GHy-52" value="&lt;b&gt;T_DISTRICT&lt;/b&gt;" style="ellipse;whiteSpace=wrap;html=1;align=center;" vertex="1" parent="1">
                    <mxGeometry x="465" y="710" width="100" height="40" as="geometry"/>
                </mxCell>
                <mxCell id="0UzY4HS0dQBs1e5G8GHy-53" style="edgeStyle=none;html=1;entryX=1;entryY=0.75;entryDx=0;entryDy=0;endArrow=none;endFill=0;" edge="1" parent="1" source="0UzY4HS0dQBs1e5G8GHy-54" target="0UzY4HS0dQBs1e5G8GHy-40">
                    <mxGeometry relative="1" as="geometry"/>
                </mxCell>
                <mxCell id="0UzY4HS0dQBs1e5G8GHy-54" value="&lt;b&gt;T_TOLE&lt;/b&gt;" style="ellipse;whiteSpace=wrap;html=1;align=center;" vertex="1" parent="1">
                    <mxGeometry x="565" y="710" width="100" height="40" as="geometry"/>
                </mxCell>
                <mxCell id="0UzY4HS0dQBs1e5G8GHy-55" value="&lt;b&gt;T_WARD&lt;/b&gt;" style="ellipse;whiteSpace=wrap;html=1;align=center;" vertex="1" parent="1">
                    <mxGeometry x="545" y="780" width="100" height="40" as="geometry"/>
                </mxCell>
                <mxCell id="0UzY4HS0dQBs1e5G8GHy-56" style="edgeStyle=none;html=1;entryX=0.5;entryY=0;entryDx=0;entryDy=0;endArrow=none;endFill=0;" edge="1" parent="1" source="0UzY4HS0dQBs1e5G8GHy-58" target="0UzY4HS0dQBs1e5G8GHy-83">
                    <mxGeometry relative="1" as="geometry"/>
                </mxCell>
                <mxCell id="0UzY4HS0dQBs1e5G8GHy-57" style="edgeStyle=none;html=1;entryX=0.5;entryY=0;entryDx=0;entryDy=0;endArrow=none;endFill=0;" edge="1" parent="1" source="0UzY4HS0dQBs1e5G8GHy-58" target="0UzY4HS0dQBs1e5G8GHy-85">
                    <mxGeometry relative="1" as="geometry"/>
                </mxCell>
                <mxCell id="0UzY4HS0dQBs1e5G8GHy-58" value="&lt;b&gt;USER&lt;/b&gt;" style="whiteSpace=wrap;html=1;align=center;" vertex="1" parent="1">
                    <mxGeometry x="780" y="260" width="160" height="40" as="geometry"/>
                </mxCell>
                <mxCell id="0UzY4HS0dQBs1e5G8GHy-59" style="edgeStyle=none;html=1;entryX=0.141;entryY=0.026;entryDx=0;entryDy=0;entryPerimeter=0;endArrow=none;endFill=0;" edge="1" parent="1" source="0UzY4HS0dQBs1e5G8GHy-60" target="0UzY4HS0dQBs1e5G8GHy-58">
                    <mxGeometry relative="1" as="geometry"/>
                </mxCell>
                <mxCell id="0UzY4HS0dQBs1e5G8GHy-60" value="&lt;b&gt;ID&lt;/b&gt;" style="ellipse;whiteSpace=wrap;html=1;align=center;fontStyle=4;" vertex="1" parent="1">
                    <mxGeometry x="690" y="210" width="80" height="40" as="geometry"/>
                </mxCell>
                <mxCell id="0UzY4HS0dQBs1e5G8GHy-61" style="edgeStyle=none;html=1;endArrow=none;endFill=0;" edge="1" parent="1" source="0UzY4HS0dQBs1e5G8GHy-62" target="0UzY4HS0dQBs1e5G8GHy-58">
                    <mxGeometry relative="1" as="geometry"/>
                </mxCell>
                <mxCell id="0UzY4HS0dQBs1e5G8GHy-62" value="&lt;b&gt;USERNAME&lt;/b&gt;" style="ellipse;whiteSpace=wrap;html=1;align=center;" vertex="1" parent="1">
                    <mxGeometry x="750" y="150" width="100" height="40" as="geometry"/>
                </mxCell>
                <mxCell id="0UzY4HS0dQBs1e5G8GHy-63" style="edgeStyle=none;html=1;endArrow=none;endFill=0;" edge="1" parent="1" source="0UzY4HS0dQBs1e5G8GHy-64" target="0UzY4HS0dQBs1e5G8GHy-58">
                    <mxGeometry relative="1" as="geometry"/>
                </mxCell>
                <mxCell id="0UzY4HS0dQBs1e5G8GHy-64" value="&lt;b&gt;EMAIL&lt;/b&gt;" style="ellipse;whiteSpace=wrap;html=1;align=center;" vertex="1" parent="1">
                    <mxGeometry x="860" y="120" width="100" height="40" as="geometry"/>
                </mxCell>
                <mxCell id="0UzY4HS0dQBs1e5G8GHy-65" style="edgeStyle=none;html=1;endArrow=none;endFill=0;" edge="1" parent="1" source="0UzY4HS0dQBs1e5G8GHy-66" target="0UzY4HS0dQBs1e5G8GHy-58">
                    <mxGeometry relative="1" as="geometry"/>
                </mxCell>
                <mxCell id="0UzY4HS0dQBs1e5G8GHy-66" value="&lt;b&gt;PASSWORD&lt;/b&gt;" style="ellipse;whiteSpace=wrap;html=1;align=center;" vertex="1" parent="1">
                    <mxGeometry x="970" y="180" width="100" height="40" as="geometry"/>
                </mxCell>
                <mxCell id="0UzY4HS0dQBs1e5G8GHy-67" style="edgeStyle=none;html=1;endArrow=none;endFill=0;" edge="1" parent="1" source="0UzY4HS0dQBs1e5G8GHy-68" target="0UzY4HS0dQBs1e5G8GHy-58">
                    <mxGeometry relative="1" as="geometry"/>
                </mxCell>
                <mxCell id="0UzY4HS0dQBs1e5G8GHy-68" value="&lt;b&gt;TIMESTAMPS&lt;/b&gt;" style="ellipse;whiteSpace=wrap;html=1;align=center;" vertex="1" parent="1">
                    <mxGeometry x="1040" y="260" width="100" height="40" as="geometry"/>
                </mxCell>
                <mxCell id="0UzY4HS0dQBs1e5G8GHy-69" value="&lt;b&gt;USER_ROLE&lt;/b&gt;" style="whiteSpace=wrap;html=1;align=center;" vertex="1" parent="1">
                    <mxGeometry x="790" y="530" width="160" height="40" as="geometry"/>
                </mxCell>
                <mxCell id="0UzY4HS0dQBs1e5G8GHy-70" style="edgeStyle=none;html=1;entryX=0.349;entryY=0.986;entryDx=0;entryDy=0;entryPerimeter=0;endArrow=none;endFill=0;" edge="1" parent="1" source="0UzY4HS0dQBs1e5G8GHy-71" target="0UzY4HS0dQBs1e5G8GHy-69">
                    <mxGeometry relative="1" as="geometry"/>
                </mxCell>
                <mxCell id="0UzY4HS0dQBs1e5G8GHy-71" value="&lt;b&gt;ID&lt;/b&gt;" style="ellipse;whiteSpace=wrap;html=1;align=center;fontStyle=4;" vertex="1" parent="1">
                    <mxGeometry x="710" y="600" width="80" height="40" as="geometry"/>
                </mxCell>
                <mxCell id="0UzY4HS0dQBs1e5G8GHy-72" style="edgeStyle=none;html=1;entryX=0.5;entryY=1;entryDx=0;entryDy=0;endArrow=none;endFill=0;" edge="1" parent="1" source="0UzY4HS0dQBs1e5G8GHy-73" target="0UzY4HS0dQBs1e5G8GHy-69">
                    <mxGeometry relative="1" as="geometry"/>
                </mxCell>
                <mxCell id="0UzY4HS0dQBs1e5G8GHy-73" value="&lt;b&gt;USER_ID&lt;/b&gt;" style="ellipse;whiteSpace=wrap;html=1;align=center;fontStyle=4;" vertex="1" parent="1">
                    <mxGeometry x="850" y="640" width="80" height="40" as="geometry"/>
                </mxCell>
                <mxCell id="0UzY4HS0dQBs1e5G8GHy-74" style="edgeStyle=none;html=1;entryX=0.821;entryY=1.046;entryDx=0;entryDy=0;entryPerimeter=0;endArrow=none;endFill=0;" edge="1" parent="1" source="0UzY4HS0dQBs1e5G8GHy-75" target="0UzY4HS0dQBs1e5G8GHy-69">
                    <mxGeometry relative="1" as="geometry"/>
                </mxCell>
                <mxCell id="0UzY4HS0dQBs1e5G8GHy-75" value="&lt;b&gt;ROLE&lt;/b&gt;" style="ellipse;whiteSpace=wrap;html=1;align=center;" vertex="1" parent="1">
                    <mxGeometry x="980" y="620" width="100" height="40" as="geometry"/>
                </mxCell>
                <mxCell id="0UzY4HS0dQBs1e5G8GHy-76" style="edgeStyle=none;html=1;endArrow=none;endFill=0;" edge="1" parent="1" source="0UzY4HS0dQBs1e5G8GHy-77" target="0UzY4HS0dQBs1e5G8GHy-7">
                    <mxGeometry relative="1" as="geometry"/>
                </mxCell>
                <mxCell id="0UzY4HS0dQBs1e5G8GHy-77" value="&lt;b&gt;HAS&lt;/b&gt;" style="shape=rhombus;perimeter=rhombusPerimeter;whiteSpace=wrap;html=1;align=center;" vertex="1" parent="1">
                    <mxGeometry x="190" y="320" width="120" height="60" as="geometry"/>
                </mxCell>
                <mxCell id="0UzY4HS0dQBs1e5G8GHy-78" style="edgeStyle=none;html=1;entryX=0.5;entryY=0;entryDx=0;entryDy=0;endArrow=none;endFill=0;" edge="1" parent="1" source="0UzY4HS0dQBs1e5G8GHy-79" target="0UzY4HS0dQBs1e5G8GHy-40">
                    <mxGeometry relative="1" as="geometry"/>
                </mxCell>
                <mxCell id="0UzY4HS0dQBs1e5G8GHy-79" value="&lt;b&gt;HAS&lt;/b&gt;" style="shape=rhombus;perimeter=rhombusPerimeter;whiteSpace=wrap;html=1;align=center;" vertex="1" parent="1">
                    <mxGeometry x="320" y="540" width="120" height="60" as="geometry"/>
                </mxCell>
                <mxCell id="0UzY4HS0dQBs1e5G8GHy-80" style="edgeStyle=none;html=1;entryX=0;entryY=0.5;entryDx=0;entryDy=0;endArrow=none;endFill=0;" edge="1" parent="1" source="0UzY4HS0dQBs1e5G8GHy-81" target="0UzY4HS0dQBs1e5G8GHy-58">
                    <mxGeometry relative="1" as="geometry"/>
                </mxCell>
                <mxCell id="0UzY4HS0dQBs1e5G8GHy-81" value="&lt;b&gt;HAS&lt;/b&gt;" style="shape=rhombus;perimeter=rhombusPerimeter;whiteSpace=wrap;html=1;align=center;" vertex="1" parent="1">
                    <mxGeometry x="560" y="250" width="120" height="60" as="geometry"/>
                </mxCell>
                <mxCell id="0UzY4HS0dQBs1e5G8GHy-82" style="edgeStyle=none;html=1;entryX=0.454;entryY=-0.034;entryDx=0;entryDy=0;entryPerimeter=0;endArrow=none;endFill=0;" edge="1" parent="1" source="0UzY4HS0dQBs1e5G8GHy-83" target="0UzY4HS0dQBs1e5G8GHy-69">
                    <mxGeometry relative="1" as="geometry"/>
                </mxCell>
                <mxCell id="0UzY4HS0dQBs1e5G8GHy-83" value="&lt;b&gt;HAS&lt;/b&gt;" style="shape=rhombus;perimeter=rhombusPerimeter;whiteSpace=wrap;html=1;align=center;" vertex="1" parent="1">
                    <mxGeometry x="800" y="394" width="120" height="60" as="geometry"/>
                </mxCell>
                <mxCell id="0UzY4HS0dQBs1e5G8GHy-84" value="&lt;b&gt;STUDENT_ID&lt;/b&gt;" style="ellipse;whiteSpace=wrap;html=1;align=center;fontStyle=4;" vertex="1" parent="1">
                    <mxGeometry x="555" y="650" width="100" height="40" as="geometry"/>
                </mxCell>
                <mxCell id="0UzY4HS0dQBs1e5G8GHy-85" value="&lt;b&gt;STUDENT_ID&lt;/b&gt;" style="ellipse;whiteSpace=wrap;html=1;align=center;fontStyle=4;" vertex="1" parent="1">
                    <mxGeometry x="970" y="330" width="100" height="40" as="geometry"/>
                </mxCell>
                <mxCell id="0UzY4HS0dQBs1e5G8GHy-86" value="1" style="text;html=1;align=center;verticalAlign=middle;resizable=0;points=[];autosize=1;strokeColor=none;fillColor=none;" vertex="1" parent="1">
                    <mxGeometry x="385" y="250" width="30" height="30" as="geometry"/>
                </mxCell>
                <mxCell id="0UzY4HS0dQBs1e5G8GHy-87" value="1" style="text;html=1;align=center;verticalAlign=middle;resizable=0;points=[];autosize=1;strokeColor=none;fillColor=none;" vertex="1" parent="1">
                    <mxGeometry x="680" y="255" width="30" height="30" as="geometry"/>
                </mxCell>
                <mxCell id="0UzY4HS0dQBs1e5G8GHy-88" value="1" style="text;html=1;align=center;verticalAlign=middle;resizable=0;points=[];autosize=1;strokeColor=none;fillColor=none;" vertex="1" parent="1">
                    <mxGeometry x="260" y="300" width="30" height="30" as="geometry"/>
                </mxCell>
                <mxCell id="0UzY4HS0dQBs1e5G8GHy-89" value="1" style="text;html=1;align=center;verticalAlign=middle;resizable=0;points=[];autosize=1;strokeColor=none;fillColor=none;" vertex="1" parent="1">
                    <mxGeometry x="250" y="380" width="30" height="30" as="geometry"/>
                </mxCell>
                <mxCell id="0UzY4HS0dQBs1e5G8GHy-90" value="1" style="text;html=1;align=center;verticalAlign=middle;resizable=0;points=[];autosize=1;strokeColor=none;fillColor=none;" vertex="1" parent="1">
                    <mxGeometry x="330" y="520" width="30" height="30" as="geometry"/>
                </mxCell>
                <mxCell id="0UzY4HS0dQBs1e5G8GHy-91" value="1" style="text;html=1;align=center;verticalAlign=middle;resizable=0;points=[];autosize=1;strokeColor=none;fillColor=none;" vertex="1" parent="1">
                    <mxGeometry x="400" y="610" width="30" height="30" as="geometry"/>
                </mxCell>
                <mxCell id="0UzY4HS0dQBs1e5G8GHy-92" value="1" style="text;html=1;align=center;verticalAlign=middle;resizable=0;points=[];autosize=1;strokeColor=none;fillColor=none;" vertex="1" parent="1">
                    <mxGeometry x="830" y="490" width="30" height="30" as="geometry"/>
                </mxCell>
                <mxCell id="0UzY4HS0dQBs1e5G8GHy-93" value="1" style="text;html=1;align=center;verticalAlign=middle;resizable=0;points=[];autosize=1;strokeColor=none;fillColor=none;" vertex="1" parent="1">
                    <mxGeometry x="830" y="310" width="30" height="30" as="geometry"/>
                </mxCell>
            </root>
        </mxGraphModel>
    </diagram>
</mxfile>
